<svg width="114" height="30" viewBox="0 0 114 30" fill="none" xmlns="http://www.w3.org/2000/svg">
<path fill-rule="evenodd" clip-rule="evenodd" d="M10.4141 10.8117L10.6213 9.66473C5.41022 9.19239 3.26487 11.3814 1.8764 13.2433C0.48889 15.104 -0.246618 17.4787 0.0747978 19.7696C0.569015 23.2922 3.26672 26.1778 6.67024 27.1993C11.5932 28.6767 17.3259 25.9462 18.764 20.9978L17.6253 20.6776C17.5073 21.0836 17.318 21.5059 17.0969 21.9207C16.7774 21.491 16.5938 20.9748 16.4047 20.4815L16.4039 20.4794C16.1999 19.9475 16.0033 19.3918 15.6394 18.9424C14.6105 17.6719 12.929 18.5482 11.9704 19.4156L11.9689 19.4169C11.5392 19.8058 11.1983 20.1142 10.6591 20.2825C9.74921 20.5664 8.8669 19.8865 7.9445 20.0242C6.28893 20.2713 5.92606 22.4406 5.95553 23.7681C5.97028 24.4323 6.0598 25.143 6.14111 25.7687C3.93111 24.8285 2.18757 22.9746 1.49834 20.734C2.05461 20.9161 2.70816 21.0038 3.23752 20.6978C4.256 20.1089 4.38021 18.9066 5.15603 18.1339C6.00394 17.2895 7.62177 18.3547 8.53275 17.1388C9.06566 16.4275 9.07877 15.7261 9.08777 15.2451C9.09191 15.0234 9.08249 14.7839 9.17251 14.5768C9.2175 14.4734 9.3061 14.3459 9.54479 14.2025C10.0596 13.893 10.3004 13.4237 10.3058 12.9116C10.3107 12.4449 10.1218 11.986 9.89491 11.6024C9.72003 11.3066 9.49904 11.0168 9.26114 10.7541C9.66185 10.7365 10.0449 10.7472 10.4141 10.8117ZM7.3891 26.188C10.7858 27.0447 14.4786 25.7986 16.4592 22.9745C16.1838 22.7058 15.9755 22.3905 15.8091 22.0784C15.4829 21.4668 15.1124 19.3874 14.2722 19.4552C12.9902 19.5584 12.232 21.0139 11.0171 21.3929C9.95803 21.7234 9.10321 21.0295 8.12217 21.176C7.17684 21.3171 7.12503 23.0898 7.13953 23.7427C7.15827 24.5869 7.29468 25.3964 7.3891 26.188ZM1.21581 19.3398C1.5455 19.5209 2.25999 19.9117 2.63743 19.6934C3.46567 19.2146 3.65018 17.9758 4.31349 17.3152C4.84037 16.7905 5.57616 16.7667 6.27671 16.788L6.27831 16.788C6.72973 16.8017 7.27948 16.848 7.57941 16.4476C7.88116 16.0449 7.89041 15.6953 7.90329 15.2089C7.91311 14.8379 7.93309 14.465 8.08366 14.1187C8.23923 13.7609 8.51088 13.4587 8.92725 13.2084C9.08508 13.1135 9.1203 13.0202 9.12157 12.8996C9.12331 12.7336 9.04945 12.4895 8.87124 12.1882C8.56053 11.6627 8.05323 11.1617 7.68475 10.9045C5.74196 11.1818 4.02078 12.3373 2.8313 13.9324C1.65626 15.5082 1.0333 17.4697 1.21581 19.3398Z" fill="white"/>
<path fill-rule="evenodd" clip-rule="evenodd" d="M16.2319 1.7998H16.8241C17.5592 1.7998 18.2719 1.95887 18.8643 2.34136C19.4666 2.73019 19.902 3.32317 20.1113 4.10642C20.8669 6.93399 20.0219 9.46556 18.9299 11.8682V19.6722L16.2319 18.8651V1.7998ZM17.4162 3.01492V18.0017L17.7456 18.1003V11.6181L17.798 11.5039C18.8942 9.11266 19.6241 6.86528 18.9659 4.40262C18.826 3.87901 18.5562 3.53589 18.2145 3.31532C17.9936 3.1727 17.7259 3.07088 17.4162 3.01492ZM12.1715 7.5902L12.1717 2.04301L13.356 2.04305L13.3558 7.6106C13.7674 7.54539 14.0076 7.40083 14.1572 7.24462C14.3807 7.01132 14.5121 6.63944 14.547 6.08497C14.5817 5.53362 14.5164 4.89553 14.4336 4.20559C14.425 4.1343 14.4163 4.06234 14.4074 3.98989L14.4067 3.98413L14.4066 3.9828C14.3331 3.37981 14.2555 2.74269 14.2555 2.17091H15.4398C15.4398 2.66813 15.5081 3.23125 15.5829 3.84744C15.5918 3.92055 15.6008 3.9944 15.6097 4.06897C15.6913 4.74879 15.7712 5.48625 15.729 6.15692C15.687 6.82448 15.5196 7.52111 15.0192 8.04353C14.6146 8.46597 14.0569 8.70895 13.3556 8.78547L13.3527 17.8032L12.1685 17.8029L12.1713 8.76972C11.4692 8.67656 10.9138 8.42824 10.511 8.01065C10.0117 7.49307 9.84199 6.8119 9.79922 6.15379C9.75646 5.49582 9.83615 4.77122 9.9172 4.09679C9.92489 4.0328 9.93259 3.96923 9.94024 3.9061C10.0159 3.28182 10.0864 2.70023 10.0864 2.17092L11.2707 2.1709C11.2707 2.77406 11.1913 3.42676 11.1171 4.03669L11.117 4.03779C11.109 4.10358 11.1011 4.16887 11.0933 4.23355C11.0107 4.92053 10.9462 5.54308 10.9811 6.07946C11.0159 6.6157 11.1456 6.9761 11.3701 7.20876C11.522 7.36622 11.764 7.51291 12.1715 7.5902Z" fill="white"/>
<path d="M30.6015 17.3997C29.6285 17.3997 28.7782 17.2283 28.0507 16.8854C27.3323 16.5426 26.7776 16.0679 26.3866 15.4613C25.9955 14.8459 25.8 14.1382 25.8 13.3382C25.8 12.5382 25.9456 11.7997 26.2365 11.1229C26.5275 10.446 26.9367 9.86129 27.4642 9.36902C27.9916 8.86793 28.6191 8.48115 29.3466 8.20859C30.0831 7.93603 30.8971 7.7998 31.7882 7.7998C32.6703 7.7998 33.4523 7.94922 34.1343 8.24815C34.8164 8.54709 35.3256 8.97778 35.6621 9.54045L33.7115 11.0437C33.4932 10.6921 33.2068 10.424 32.8521 10.2393C32.5066 10.0547 32.0928 9.96242 31.6109 9.96242C31.1471 9.96242 30.7242 10.0415 30.3423 10.1998C29.9695 10.358 29.6466 10.5822 29.3738 10.8723C29.101 11.1624 28.8919 11.5053 28.7464 11.9009C28.6008 12.2876 28.5281 12.7096 28.5281 13.1668C28.5281 13.5799 28.6191 13.9448 28.8009 14.2613C28.9919 14.5689 29.2602 14.8108 29.6057 14.9866C29.9604 15.1536 30.3787 15.2371 30.8606 15.2371C31.288 15.2371 31.6972 15.1536 32.0883 14.9866C32.4884 14.8195 32.8567 14.547 33.1932 14.169L34.7891 15.6855C34.2526 16.3096 33.6342 16.7536 32.934 17.0173C32.2338 17.2722 31.4563 17.3997 30.6015 17.3997Z" fill="white"/>
<path d="M41.012 17.3998C40.0299 17.3998 39.1842 17.2284 38.4749 16.8855C37.7656 16.5338 37.22 16.0548 36.838 15.4482C36.4561 14.8416 36.2651 14.1383 36.2651 13.3383C36.2651 12.5295 36.4107 11.7911 36.7016 11.1229C36.9927 10.446 37.4019 9.86137 37.9293 9.3691C38.4567 8.868 39.0842 8.48123 39.8116 8.20867C40.5482 7.93611 41.353 7.79988 42.226 7.79988C43.2081 7.79988 44.0538 7.97567 44.7631 8.32735C45.4724 8.6702 46.018 9.14493 46.4 9.75151C46.7819 10.3581 46.9729 11.0614 46.9729 11.8614C46.9729 12.6701 46.8274 13.4131 46.5364 14.0899C46.2454 14.7581 45.8362 15.3427 45.3087 15.8438C44.7814 16.336 44.1493 16.7185 43.4127 16.991C42.6853 17.2636 41.885 17.3998 41.012 17.3998ZM41.2439 15.2372C41.7168 15.2372 42.1351 15.1537 42.4988 14.9866C42.8717 14.8196 43.1854 14.5867 43.44 14.2877C43.7038 13.9801 43.9038 13.6328 44.0402 13.246C44.1766 12.8592 44.2448 12.4504 44.2448 12.0196C44.2448 11.6065 44.1539 11.246 43.972 10.9383C43.7993 10.6307 43.5446 10.3933 43.2081 10.2262C42.8807 10.0504 42.4761 9.9625 41.9941 9.9625C41.5303 9.9625 41.1121 10.046 40.7392 10.213C40.3664 10.3801 40.0482 10.6175 39.7844 10.9251C39.5298 11.2241 39.3342 11.5669 39.1978 11.9537C39.0614 12.3405 38.9932 12.7493 38.9932 13.1801C38.9932 13.5845 39.0797 13.9449 39.2524 14.2614C39.4343 14.569 39.6889 14.8108 40.0163 14.9866C40.3528 15.1537 40.762 15.2372 41.2439 15.2372Z" fill="white"/>
<path d="M53.2149 17.3998C52.2328 17.3998 51.3871 17.2284 50.6778 16.8855C49.9685 16.5338 49.4229 16.0548 49.0409 15.4482C48.659 14.8416 48.468 14.1383 48.468 13.3383C48.468 12.5295 48.6135 11.7911 48.9045 11.1229C49.1955 10.446 49.6047 9.86137 50.1322 9.3691C50.6595 8.868 51.287 8.48123 52.0145 8.20867C52.7511 7.93611 53.5559 7.79988 54.4289 7.79988C55.411 7.79988 56.2567 7.97567 56.966 8.32735C57.6753 8.6702 58.2209 9.14493 58.6029 9.75151C58.9848 10.3581 59.1758 11.0614 59.1758 11.8614C59.1758 12.6701 59.0302 13.4131 58.7393 14.0899C58.4482 14.7581 58.039 15.3427 57.5116 15.8438C56.9842 16.336 56.3522 16.7185 55.6156 16.991C54.888 17.2636 54.0879 17.3998 53.2149 17.3998ZM53.4468 15.2372C53.9196 15.2372 54.3379 15.1537 54.7017 14.9866C55.0745 14.8196 55.3882 14.5867 55.6429 14.2877C55.9066 13.9801 56.1067 13.6328 56.2431 13.246C56.3795 12.8592 56.4477 12.4504 56.4477 12.0196C56.4477 11.6065 56.3567 11.246 56.1749 10.9383C56.002 10.6307 55.7474 10.3933 55.411 10.2262C55.0836 10.0504 54.6789 9.9625 54.197 9.9625C53.7332 9.9625 53.3149 10.046 52.9421 10.213C52.5692 10.3801 52.2509 10.6175 51.9873 10.9251C51.7326 11.2241 51.5371 11.5669 51.4007 11.9537C51.2643 12.3405 51.1961 12.7493 51.1961 13.1801C51.1961 13.5845 51.2825 13.9449 51.4553 14.2614C51.6371 14.569 51.8918 14.8108 52.2191 14.9866C52.5555 15.1537 52.9648 15.2372 53.4468 15.2372Z" fill="white"/>
<path d="M63.4457 14.5966L64.1249 11.4232L68.515 7.79988H71.7669L66.6728 12.0515L64.8305 13.5252L63.4457 14.5966ZM60.225 16.9291L62.1788 7.79988H64.9003L62.9465 16.9291H60.225ZM66.938 16.9291L64.8305 13.5252L66.6728 12.0515L70.0223 16.9291H66.938Z" fill="white"/>
<path d="M74.2618 17.0306L75.7486 9.87019H72.816L73.2524 7.79988H81.805L81.3685 9.87019H78.4495L76.9626 17.0306H74.2618Z" fill="white"/>
<path d="M86.5187 17.3998C85.5366 17.3998 84.6909 17.2284 83.9816 16.8855C83.2723 16.5338 82.7267 16.0548 82.3448 15.4482C81.9628 14.8416 81.7719 14.1383 81.7719 13.3383C81.7719 12.5295 81.9174 11.7911 82.2084 11.1229C82.4994 10.446 82.9086 9.86137 83.436 9.3691C83.9635 8.868 84.5909 8.48123 85.3184 8.20867C86.055 7.93611 86.8597 7.79988 87.7327 7.79988C88.7148 7.79988 89.5605 7.97567 90.2698 8.32735C90.9791 8.6702 91.5248 9.14493 91.9067 9.75151C92.2886 10.3581 92.4796 11.0614 92.4796 11.8614C92.4796 12.6701 92.3337 13.4131 92.0431 14.0899C91.7525 14.7581 91.3432 15.3427 90.8155 15.8438C90.2877 16.336 89.656 16.7185 88.9194 16.991C88.192 17.2636 87.3917 17.3998 86.5187 17.3998ZM86.7506 15.2372C87.2235 15.2372 87.6419 15.1537 88.0055 14.9866C88.3784 14.8196 88.6922 14.5867 88.9467 14.2877C89.2105 13.9801 89.4105 13.6328 89.5469 13.246C89.6833 12.8592 89.7515 12.4504 89.7515 12.0196C89.7515 11.6065 89.6602 11.246 89.4787 10.9383C89.3056 10.6307 89.0513 10.3933 88.7148 10.2262C88.3875 10.0504 87.9829 9.9625 87.5008 9.9625C87.0371 9.9625 86.6188 10.046 86.2459 10.213C85.8731 10.3801 85.5549 10.6175 85.2911 10.9251C85.0365 11.2241 84.841 11.5669 84.7045 11.9537C84.5681 12.3405 84.5 12.7493 84.5 13.1801C84.5 13.5845 84.5864 13.9449 84.7591 14.2614C84.9411 14.569 85.1956 14.8108 85.523 14.9866C85.8595 15.1537 86.2687 15.2372 86.7506 15.2372Z" fill="white"/>
<path d="M97.9651 17.2152C97.0103 17.2152 96.2107 17.0394 95.5644 16.6877C94.9285 16.3273 94.4784 15.8262 94.214 15.1844C93.9506 14.5339 93.9055 13.7778 94.0776 12.9163L95.1415 7.79988H97.8423L96.792 12.8768C96.7196 13.246 96.6965 13.5668 96.7238 13.8394C96.7511 14.112 96.8287 14.3405 96.9557 14.5251C97.0921 14.7097 97.2694 14.8459 97.4877 14.9339C97.7154 15.013 97.984 15.0526 98.2925 15.0526C98.666 15.0526 98.9881 14.9823 99.2609 14.8416C99.5432 14.6922 99.7751 14.4592 99.9566 14.1427C100.148 13.8174 100.293 13.3954 100.393 12.8768L101.443 7.79988H104.103L103.026 13.035C102.744 14.4064 102.18 15.4482 101.334 16.1603C100.489 16.8635 99.3659 17.2152 97.9651 17.2152Z" fill="white"/>
<path d="M114 10.7082C114 11.5429 113.765 12.2645 113.295 12.8731C112.825 13.473 112.167 13.9121 111.319 14.1904L112.963 16.9291H110.103L108.666 14.5034H107.284L106.773 16.9291H104.036L105.971 7.79988H110.103C111.337 7.79988 112.296 8.05631 112.977 8.56938C113.659 9.08234 114 9.79523 114 10.7082ZM111.236 10.956C111.236 10.5821 111.103 10.3039 110.835 10.1214C110.568 9.93004 110.195 9.83439 109.716 9.83439H108.278L107.698 12.5079H109.329C109.937 12.5079 110.407 12.3732 110.739 12.1036C111.07 11.8341 111.236 11.4516 111.236 10.956Z" fill="white"/>
<path d="M25.9513 25.2927C25.9054 25.2927 25.8688 25.281 25.8413 25.2577C25.8138 25.2344 25.8 25.2033 25.8 25.1645V21.3473C25.8 21.3045 25.8138 21.2715 25.8413 21.2482C25.8688 21.2249 25.9054 21.2132 25.9513 21.2132H28.4668C28.5173 21.2132 28.5562 21.2249 28.5837 21.2482C28.6112 21.2715 28.6249 21.3045 28.6249 21.3473V21.4347C28.6249 21.4735 28.6112 21.5046 28.5837 21.5279C28.5562 21.5512 28.5173 21.5629 28.4668 21.5629H26.2331V25.1645C26.2331 25.2033 26.2193 25.2344 26.1918 25.2577C26.1643 25.281 26.1254 25.2927 26.075 25.2927H25.9513Z" fill="white"/>
<path d="M30.5555 25.351C30.3356 25.351 30.1317 25.3121 29.9438 25.2344C29.7605 25.1567 29.6116 25.0538 29.497 24.9256C29.3825 24.7935 29.3252 24.6458 29.3252 24.4827C29.3252 24.2185 29.4512 24.0067 29.7032 23.8474C29.9552 23.6881 30.2829 23.5852 30.6861 23.5386L31.7721 23.4103V23.2064C31.7721 23.0005 31.6965 22.8392 31.5453 22.7227C31.3986 22.6022 31.1626 22.542 30.8373 22.542C30.599 22.542 30.4066 22.5828 30.26 22.6644C30.1133 22.7421 30.0125 22.845 29.9575 22.9733C29.9346 23.0315 29.8911 23.0607 29.827 23.0607H29.717C29.662 23.0607 29.623 23.049 29.6001 23.0257C29.5772 22.9985 29.5658 22.9674 29.5658 22.9325C29.5658 22.8781 29.5887 22.8101 29.6345 22.7285C29.6849 22.6469 29.7605 22.5673 29.8613 22.4896C29.9621 22.408 30.0927 22.34 30.2531 22.2856C30.4135 22.2312 30.6082 22.204 30.8373 22.204C31.1077 22.204 31.3299 22.2351 31.504 22.2972C31.6827 22.3594 31.8202 22.441 31.9164 22.542C32.0172 22.6391 32.0882 22.7479 32.1295 22.8684C32.1707 22.9888 32.1913 23.1073 32.1913 23.2239V25.1645C32.1913 25.2034 32.1776 25.2344 32.1501 25.2578C32.1226 25.2811 32.0859 25.2927 32.0401 25.2927H31.9233C31.8775 25.2927 31.8408 25.2811 31.8133 25.2578C31.7858 25.2344 31.7721 25.2034 31.7721 25.1645V24.8906C31.7171 24.9605 31.6392 25.0305 31.5384 25.1004C31.4376 25.1703 31.307 25.2306 31.1466 25.2811C30.9908 25.3277 30.7938 25.351 30.5555 25.351ZM30.6242 25.013C30.835 25.013 31.0275 24.9741 31.2016 24.8964C31.3757 24.8187 31.5132 24.7002 31.614 24.5409C31.7194 24.3778 31.7721 24.1738 31.7721 23.929V23.7309L30.8854 23.8358C30.5097 23.8785 30.2256 23.9523 30.0331 24.0572C29.8407 24.1621 29.7445 24.2942 29.7445 24.4535C29.7445 24.5817 29.788 24.6866 29.8751 24.7682C29.9621 24.8498 30.0721 24.912 30.205 24.9547C30.3424 24.9936 30.4822 25.013 30.6242 25.013Z" fill="white"/>
<path d="M35.0449 25.351C34.7242 25.351 34.4516 25.2985 34.227 25.1936C34.0025 25.0849 33.8307 24.9295 33.7115 24.7274C33.597 24.5254 33.5351 24.2865 33.526 24.0106C33.5214 23.9523 33.5191 23.8746 33.5191 23.7775C33.5191 23.6804 33.5214 23.6027 33.526 23.5444C33.5351 23.2646 33.597 23.0257 33.7115 22.8276C33.8307 22.6255 34.0025 22.4721 34.227 22.3672C34.4516 22.2584 34.7242 22.204 35.0449 22.204C35.2878 22.204 35.4963 22.2331 35.6704 22.2914C35.8491 22.3458 35.9957 22.4196 36.1103 22.5129C36.2248 22.6022 36.3119 22.7013 36.3715 22.8101C36.431 22.9189 36.4631 23.0257 36.4677 23.1306C36.4723 23.1695 36.4585 23.2005 36.4265 23.2239C36.3944 23.2472 36.3577 23.2588 36.3165 23.2588H36.2203C36.1744 23.2588 36.1401 23.2511 36.1172 23.2355C36.0988 23.2161 36.0782 23.1831 36.0553 23.1364C35.9591 22.915 35.8262 22.7615 35.6567 22.676C35.4917 22.5867 35.2878 22.542 35.0449 22.542C34.7334 22.542 34.4745 22.6236 34.2683 22.7868C34.0667 22.9461 33.959 23.2083 33.9452 23.5735C33.9361 23.7095 33.9361 23.8455 33.9452 23.9815C33.959 24.3467 34.0667 24.6109 34.2683 24.774C34.4745 24.9333 34.7334 25.013 35.0449 25.013C35.2878 25.013 35.4917 24.9702 35.6567 24.8848C35.8262 24.7954 35.9591 24.64 36.0553 24.4186C36.0782 24.3719 36.0988 24.3408 36.1172 24.3253C36.1401 24.3059 36.1744 24.2962 36.2203 24.2962H36.3165C36.3577 24.2962 36.3944 24.3078 36.4265 24.3311C36.4585 24.3544 36.4723 24.3855 36.4677 24.4244C36.4631 24.5099 36.4425 24.5953 36.4058 24.6808C36.3692 24.7663 36.3119 24.8498 36.234 24.9314C36.1607 25.013 36.069 25.0849 35.9591 25.147C35.8491 25.2092 35.7162 25.2578 35.5604 25.2927C35.4092 25.3316 35.2374 25.351 35.0449 25.351Z" fill="white"/>
<path d="M38.8807 25.2927C38.8349 25.2927 38.7982 25.281 38.7707 25.2577C38.7433 25.2344 38.7295 25.2033 38.7295 25.1645V22.6003H37.4717C37.4259 22.6003 37.3892 22.5886 37.3617 22.5653C37.3342 22.542 37.3205 22.5109 37.3205 22.472V22.3905C37.3205 22.3516 37.3342 22.3205 37.3617 22.2972C37.3892 22.2739 37.4259 22.2622 37.4717 22.2622H40.4066C40.4524 22.2622 40.489 22.2739 40.5165 22.2972C40.544 22.3205 40.5578 22.3516 40.5578 22.3905V22.472C40.5578 22.5109 40.544 22.542 40.5165 22.5653C40.489 22.5886 40.4524 22.6003 40.4066 22.6003H39.1488V25.1645C39.1488 25.2033 39.135 25.2344 39.1075 25.2577C39.08 25.281 39.0434 25.2927 38.9976 25.2927H38.8807Z" fill="white"/>
<path d="M41.7754 26.4C41.7296 26.4 41.6929 26.3883 41.6654 26.365C41.6379 26.3417 41.6242 26.3106 41.6242 26.2718V22.3905C41.6242 22.3516 41.6379 22.3205 41.6654 22.2972C41.6929 22.2739 41.7296 22.2623 41.7754 22.2623H41.8922C41.938 22.2623 41.9747 22.2739 42.0022 22.2972C42.0297 22.3205 42.0434 22.3516 42.0434 22.3905V22.6644C42.158 22.5323 42.3069 22.4235 42.4902 22.338C42.6781 22.2487 42.914 22.204 43.1981 22.204C43.4685 22.204 43.6953 22.2448 43.8786 22.3264C44.0619 22.4041 44.2108 22.509 44.3253 22.6411C44.4399 22.7732 44.5247 22.9208 44.5796 23.084C44.6346 23.2472 44.6644 23.4142 44.669 23.5852C44.6736 23.6435 44.6759 23.7076 44.6759 23.7775C44.6759 23.8474 44.6736 23.9115 44.669 23.9698C44.6644 24.1408 44.6346 24.3078 44.5796 24.471C44.5247 24.6342 44.4399 24.7818 44.3253 24.9139C44.2108 25.046 44.0619 25.1529 43.8786 25.2344C43.6953 25.3121 43.4685 25.351 43.1981 25.351C42.914 25.351 42.6781 25.3063 42.4902 25.217C42.3069 25.1276 42.158 25.0188 42.0434 24.8906V26.2718C42.0434 26.3106 42.0297 26.3417 42.0022 26.365C41.9747 26.3883 41.938 26.4 41.8922 26.4H41.7754ZM43.1569 25.013C43.4272 25.013 43.6403 24.9625 43.7961 24.8615C43.9519 24.7604 44.0642 24.6284 44.1329 24.4652C44.2016 24.302 44.2406 24.1272 44.2497 23.9407C44.2543 23.8319 44.2543 23.7231 44.2497 23.6143C44.2406 23.4278 44.2016 23.253 44.1329 23.0898C44.0642 22.9266 43.9519 22.7945 43.7961 22.6935C43.6403 22.5925 43.4272 22.542 43.1569 22.542C42.8957 22.542 42.6849 22.5945 42.5246 22.6994C42.3642 22.8043 42.245 22.9363 42.1672 23.0956C42.0938 23.251 42.0526 23.4084 42.0434 23.5677C42.0389 23.626 42.0366 23.7017 42.0366 23.795C42.0366 23.8882 42.0389 23.964 42.0434 24.0223C42.048 24.1777 42.0893 24.3311 42.1672 24.4827C42.2496 24.6342 42.3711 24.7604 42.5314 24.8615C42.6964 24.9625 42.9049 25.013 43.1569 25.013Z" fill="white"/>
<path d="M47.3845 25.351C47.0546 25.351 46.7774 25.2927 46.5528 25.1762C46.3329 25.0596 46.1634 24.9003 46.0442 24.6983C45.9297 24.4963 45.8678 24.2709 45.8587 24.0223C45.8541 23.964 45.8518 23.8824 45.8518 23.7775C45.8518 23.6726 45.8541 23.591 45.8587 23.5327C45.8678 23.2802 45.9297 23.0548 46.0442 22.8567C46.1634 22.6547 46.3329 22.4954 46.5528 22.3788C46.7774 22.2623 47.0546 22.204 47.3845 22.204C47.7144 22.204 47.9893 22.2623 48.2093 22.3788C48.4338 22.4954 48.6034 22.6547 48.7179 22.8567C48.837 23.0548 48.9012 23.2802 48.9104 23.5327C48.9149 23.591 48.9172 23.6726 48.9172 23.7775C48.9172 23.8824 48.9149 23.964 48.9104 24.0223C48.9012 24.2709 48.837 24.4963 48.7179 24.6983C48.6034 24.9003 48.4338 25.0596 48.2093 25.1762C47.9893 25.2927 47.7144 25.351 47.3845 25.351ZM47.3845 25.013C47.7053 25.013 47.9664 24.9256 48.168 24.7507C48.3697 24.5759 48.4773 24.3234 48.4911 23.9931C48.4957 23.9348 48.498 23.863 48.498 23.7775C48.498 23.692 48.4957 23.6201 48.4911 23.5619C48.4773 23.2277 48.3697 22.9752 48.168 22.8043C47.9664 22.6294 47.7053 22.542 47.3845 22.542C47.0638 22.542 46.8026 22.6294 46.601 22.8043C46.3993 22.9752 46.2917 23.2277 46.2779 23.5619C46.2733 23.6201 46.271 23.692 46.271 23.7775C46.271 23.863 46.2733 23.9348 46.2779 23.9931C46.2917 24.3234 46.3993 24.5759 46.601 24.7507C46.8026 24.9256 47.0638 25.013 47.3845 25.013Z" fill="white"/>
<path d="M51.3605 25.2927C51.3147 25.2927 51.278 25.281 51.2505 25.2577C51.223 25.2344 51.2093 25.2033 51.2093 25.1645V22.6003H49.9515C49.9057 22.6003 49.869 22.5886 49.8415 22.5653C49.814 22.542 49.8003 22.5109 49.8003 22.472V22.3905C49.8003 22.3516 49.814 22.3205 49.8415 22.2972C49.869 22.2739 49.9057 22.2622 49.9515 22.2622H52.8863C52.9322 22.2622 52.9688 22.2739 52.9963 22.2972C53.0238 22.3205 53.0376 22.3516 53.0376 22.3905V22.472C53.0376 22.5109 53.0238 22.542 52.9963 22.5653C52.9688 22.5886 52.9322 22.6003 52.8863 22.6003H51.6285V25.1645C51.6285 25.2033 51.6148 25.2344 51.5873 25.2577C51.5598 25.281 51.5232 25.2927 51.4773 25.2927H51.3605Z" fill="white"/>
<path d="M54.179 26.4C54.1332 26.4 54.0965 26.3883 54.069 26.365C54.0415 26.3417 54.0278 26.3106 54.0278 26.2718V26.1902C54.0278 26.1513 54.0415 26.1202 54.069 26.0969C54.0965 26.0736 54.1332 26.062 54.179 26.062H54.3371C54.447 26.062 54.5364 26.0425 54.6051 26.0037C54.6739 25.9648 54.7357 25.8988 54.7907 25.8055C54.8503 25.7123 54.9213 25.5841 55.0038 25.4209L56.5434 22.3497C56.5571 22.3225 56.5754 22.3011 56.5983 22.2856C56.6213 22.27 56.6556 22.2622 56.7015 22.2622H56.8252C56.8618 22.2622 56.8939 22.2739 56.9214 22.2972C56.9489 22.3205 56.9626 22.3477 56.9626 22.3788C56.9626 22.3943 56.958 22.4099 56.9489 22.4254C56.9443 22.441 56.9351 22.4643 56.9214 22.4954L55.6155 25.0946C55.5559 25.215 55.4895 25.349 55.4162 25.4967C55.3428 25.6482 55.2604 25.7919 55.1687 25.9279C55.0771 26.0678 54.9694 26.1805 54.8457 26.2659C54.722 26.3553 54.5776 26.4 54.4127 26.4H54.179ZM55.1535 25.1222L53.8216 22.4954C53.7941 22.4371 53.7803 22.3982 53.7803 22.3788C53.7803 22.3477 53.7941 22.3205 53.8216 22.2972C53.8491 22.2739 53.8812 22.2622 53.9178 22.2622H54.0484C54.0942 22.2622 54.1286 22.272 54.1515 22.2914C54.1744 22.3069 54.1927 22.3263 54.2065 22.3497L55.3769 24.6765L55.1535 25.1222Z" fill="white"/>
<path d="M58.3062 26.4C58.2604 26.4 58.2238 26.3883 58.1963 26.365C58.1688 26.3417 58.155 26.3106 58.155 26.2718V22.3905C58.155 22.3516 58.1688 22.3205 58.1963 22.2972C58.2238 22.2739 58.2604 22.2623 58.3062 22.2623H58.4231C58.4689 22.2623 58.5056 22.2739 58.5331 22.2972C58.5606 22.3205 58.5743 22.3516 58.5743 22.3905V22.6644C58.6889 22.5323 58.8378 22.4235 59.0211 22.338C59.209 22.2487 59.4449 22.204 59.729 22.204C59.9993 22.204 60.2262 22.2448 60.4094 22.3264C60.5927 22.4041 60.7416 22.509 60.8562 22.6411C60.9708 22.7732 61.0555 22.9208 61.1105 23.084C61.1655 23.2472 61.1953 23.4142 61.1999 23.5852C61.2046 23.6435 61.2067 23.7076 61.2067 23.7775C61.2067 23.8474 61.2046 23.9115 61.1999 23.9698C61.1953 24.1408 61.1655 24.3078 61.1105 24.471C61.0555 24.6342 60.9708 24.7818 60.8562 24.9139C60.7416 25.046 60.5927 25.1529 60.4094 25.2344C60.2262 25.3121 59.9993 25.351 59.729 25.351C59.4449 25.351 59.209 25.3063 59.0211 25.217C58.8378 25.1276 58.6889 25.0188 58.5743 24.8906V26.2718C58.5743 26.3106 58.5606 26.3417 58.5331 26.365C58.5056 26.3883 58.4689 26.4 58.4231 26.4H58.3062ZM59.6878 25.013C59.9581 25.013 60.1712 24.9625 60.327 24.8615C60.4829 24.7604 60.595 24.6284 60.6637 24.4652C60.7325 24.302 60.7714 24.1272 60.7806 23.9407C60.7853 23.8319 60.7853 23.7231 60.7806 23.6143C60.7714 23.4278 60.7325 23.253 60.6637 23.0898C60.595 22.9266 60.4829 22.7945 60.327 22.6935C60.1712 22.5925 59.9581 22.542 59.6878 22.542C59.4266 22.542 59.2158 22.5945 59.0554 22.6994C58.895 22.8043 58.7759 22.9363 58.698 23.0956C58.6247 23.251 58.5835 23.4084 58.5743 23.5677C58.5697 23.626 58.5674 23.7017 58.5674 23.795C58.5674 23.8882 58.5697 23.964 58.5743 24.0223C58.5789 24.1777 58.6201 24.3311 58.698 24.4827C58.7805 24.6342 58.9019 24.7604 59.0623 24.8615C59.2273 24.9625 59.4357 25.013 59.6878 25.013Z" fill="white"/>
<path d="M62.7046 25.2927C62.6588 25.2927 62.6222 25.281 62.5947 25.2577C62.5672 25.2344 62.5534 25.2033 62.5534 25.1645V22.3905C62.5534 22.3516 62.5672 22.3205 62.5947 22.2972C62.6222 22.2739 62.6588 22.2622 62.7046 22.2622H62.8215C62.8673 22.2622 62.904 22.2739 62.9314 22.2972C62.9589 22.3205 62.9727 22.3516 62.9727 22.3905V23.2763H63.7287C64.1961 23.2763 64.5283 23.3695 64.7254 23.556C64.927 23.7425 65.0278 23.9931 65.0278 24.3078C65.0278 24.6497 64.9132 24.9003 64.6841 25.0596C64.4596 25.215 64.1068 25.2927 63.6256 25.2927H62.7046ZM62.9727 24.9547H63.6875C64.0082 24.9547 64.2419 24.9081 64.3886 24.8148C64.5352 24.7177 64.6085 24.5487 64.6085 24.3078C64.6085 24.0747 64.5375 23.9018 64.3954 23.7891C64.2534 23.6726 64.0174 23.6143 63.6875 23.6143H62.9727V24.9547ZM65.7013 25.2927C65.6555 25.2927 65.6189 25.281 65.5914 25.2577C65.5639 25.2344 65.5501 25.2033 65.5501 25.1645V22.3905C65.5501 22.3516 65.5639 22.3205 65.5914 22.2972C65.6189 22.2739 65.6555 22.2622 65.7013 22.2622H65.8182C65.864 22.2622 65.9007 22.2739 65.9282 22.2972C65.9557 22.3205 65.9694 22.3516 65.9694 22.3905V25.1645C65.9694 25.2033 65.9557 25.2344 65.9282 25.2577C65.9007 25.281 65.864 25.2927 65.8182 25.2927H65.7013Z" fill="white"/>
<path d="M71.0356 25.351C70.7148 25.351 70.4422 25.2985 70.2177 25.1936C69.9932 25.0849 69.8213 24.9295 69.7022 24.7274C69.5876 24.5254 69.5258 24.2865 69.5166 24.0106C69.512 23.9523 69.5097 23.8746 69.5097 23.7775C69.5097 23.6804 69.512 23.6027 69.5166 23.5444C69.5258 23.2646 69.5876 23.0257 69.7022 22.8276C69.8213 22.6255 69.9932 22.4721 70.2177 22.3672C70.4422 22.2584 70.7148 22.204 71.0356 22.204C71.2784 22.204 71.4869 22.2331 71.6611 22.2914C71.8398 22.3458 71.9864 22.4196 72.1009 22.5129C72.2155 22.6022 72.3026 22.7013 72.3621 22.8101C72.4217 22.9189 72.4538 23.0257 72.4583 23.1306C72.4629 23.1695 72.4492 23.2005 72.4171 23.2239C72.385 23.2472 72.3484 23.2588 72.3071 23.2588H72.2109C72.1651 23.2588 72.1307 23.2511 72.1078 23.2355C72.0895 23.2161 72.0689 23.1831 72.0459 23.1364C71.9497 22.915 71.8168 22.7615 71.6473 22.676C71.4824 22.5867 71.2784 22.542 71.0356 22.542C70.724 22.542 70.4651 22.6236 70.2589 22.7868C70.0573 22.9461 69.9496 23.2083 69.9359 23.5735C69.9267 23.7095 69.9267 23.8455 69.9359 23.9815C69.9496 24.3467 70.0573 24.6109 70.2589 24.774C70.4651 24.9333 70.724 25.013 71.0356 25.013C71.2784 25.013 71.4824 24.9702 71.6473 24.8848C71.8168 24.7954 71.9497 24.64 72.0459 24.4186C72.0689 24.3719 72.0895 24.3408 72.1078 24.3253C72.1307 24.3059 72.1651 24.2962 72.2109 24.2962H72.3071C72.3484 24.2962 72.385 24.3078 72.4171 24.3311C72.4492 24.3544 72.4629 24.3855 72.4583 24.4244C72.4538 24.5099 72.4331 24.5953 72.3965 24.6808C72.3598 24.7663 72.3025 24.8498 72.2247 24.9314C72.1513 25.013 72.0597 25.0849 71.9497 25.147C71.8398 25.2092 71.7069 25.2578 71.5511 25.2927C71.3999 25.3316 71.228 25.351 71.0356 25.351Z" fill="white"/>
<path d="M77.3236 25.351C76.9937 25.351 76.7165 25.2927 76.492 25.1762C76.272 25.0596 76.1025 24.9003 75.9833 24.6983C75.8688 24.4963 75.8069 24.2709 75.7978 24.0223C75.7932 23.964 75.7909 23.8824 75.7909 23.7775C75.7909 23.6726 75.7932 23.591 75.7978 23.5327C75.8069 23.2802 75.8688 23.0548 75.9833 22.8567C76.1025 22.6547 76.272 22.4954 76.492 22.3788C76.7165 22.2623 76.9937 22.204 77.3236 22.204C77.6535 22.204 77.9285 22.2623 78.1484 22.3788C78.3729 22.4954 78.5425 22.6547 78.657 22.8567C78.7761 23.0548 78.8403 23.2802 78.8495 23.5327C78.854 23.591 78.8563 23.6726 78.8563 23.7775C78.8563 23.8824 78.854 23.964 78.8495 24.0223C78.8403 24.2709 78.7761 24.4963 78.657 24.6983C78.5425 24.9003 78.3729 25.0596 78.1484 25.1762C77.9285 25.2927 77.6535 25.351 77.3236 25.351ZM77.3236 25.013C77.6444 25.013 77.9055 24.9256 78.1072 24.7507C78.3088 24.5759 78.4165 24.3234 78.4302 23.9931C78.4348 23.9348 78.4371 23.863 78.4371 23.7775C78.4371 23.692 78.4348 23.6201 78.4302 23.5619C78.4165 23.2277 78.3088 22.9752 78.1072 22.8043C77.9055 22.6294 77.6444 22.542 77.3236 22.542C77.0029 22.542 76.7417 22.6294 76.5401 22.8043C76.3385 22.9752 76.2308 23.2277 76.217 23.5619C76.2124 23.6201 76.2102 23.692 76.2102 23.7775C76.2102 23.863 76.2124 23.9348 76.217 23.9931C76.2308 24.3234 76.3385 24.5759 76.5401 24.7507C76.7417 24.9256 77.0029 25.013 77.3236 25.013Z" fill="white"/>
<path d="M81.6305 25.3509C81.3006 25.3509 81.0234 25.2926 80.7989 25.176C80.5743 25.0595 80.4025 24.9002 80.2834 24.6981C80.1688 24.4961 80.107 24.2708 80.0978 24.0221C80.0978 23.9056 80.0978 23.791 80.0978 23.6783C80.0978 23.5617 80.0978 23.4452 80.0978 23.3286C80.0978 22.9634 80.1299 22.6623 80.194 22.4253C80.2628 22.1844 80.3636 21.9902 80.4964 21.8425C80.6339 21.691 80.8057 21.5686 81.0119 21.4754C81.2227 21.3821 81.4679 21.3005 81.7474 21.2306C82.0269 21.1607 82.3453 21.0849 82.7027 21.0033C82.7394 20.9956 82.776 21.0014 82.8127 21.0208C82.8494 21.0364 82.87 21.0597 82.8746 21.0907L82.9021 21.2015C82.9112 21.2364 82.9066 21.2675 82.8883 21.2947C82.87 21.318 82.8425 21.3336 82.8058 21.3413C82.4668 21.419 82.1666 21.487 81.9054 21.5453C81.6443 21.6036 81.422 21.6696 81.2387 21.7435C81.0555 21.8173 80.9065 21.9144 80.792 22.0348C80.682 22.1514 80.5629 22.299 80.5171 22.5011C80.4712 22.6992 80.3909 22.8117 80.4093 23.1225L80.3796 23.2762C80.3933 23.1091 80.4621 22.9595 80.5858 22.8274C80.7141 22.6914 80.8768 22.5827 81.0738 22.5011C81.2708 22.4195 81.4793 22.3787 81.6992 22.3787C82.0062 22.3787 82.2651 22.437 82.4759 22.5535C82.6913 22.6701 82.8562 22.8294 82.9708 23.0314C83.0853 23.2295 83.1472 23.4549 83.1564 23.7074C83.1655 23.8356 83.1655 23.9405 83.1564 24.0221C83.1472 24.2708 83.0831 24.4961 82.9639 24.6981C82.8494 24.9002 82.6798 25.0595 82.4553 25.176C82.2354 25.2926 81.9604 25.3509 81.6305 25.3509ZM81.6305 25.0129C81.9513 25.0129 82.2124 24.9254 82.4141 24.7506C82.6157 24.5758 82.7234 24.3232 82.7371 23.993C82.7417 23.958 82.744 23.9211 82.744 23.8823C82.744 23.8434 82.7417 23.7948 82.7371 23.7366C82.7234 23.4024 82.618 23.1499 82.4209 22.979C82.2239 22.8041 81.9833 22.7167 81.6992 22.7167C81.3785 22.7167 81.1059 22.8041 80.8813 22.979C80.6568 23.1499 80.5377 23.4024 80.5239 23.7366C80.5193 23.7948 80.5171 23.8434 80.5171 23.8823C80.5171 23.9211 80.5193 23.958 80.5239 23.993C80.5377 24.3232 80.6454 24.5758 80.847 24.7506C81.0486 24.9254 81.3098 25.0129 81.6305 25.0129Z" fill="white"/>
<path d="M84.6021 26.4C84.5562 26.4 84.5196 26.3883 84.4921 26.365C84.4646 26.3417 84.4509 26.3106 84.4509 26.2718V26.1902C84.4509 26.1513 84.4646 26.1202 84.4921 26.0969C84.5196 26.0736 84.5562 26.062 84.6021 26.062H84.7601C84.8701 26.062 84.9595 26.0425 85.0282 26.0037C85.0969 25.9648 85.1588 25.8988 85.2138 25.8055C85.2733 25.7123 85.3444 25.5841 85.4268 25.4209L86.9659 22.3497C86.9808 22.3225 86.9979 22.3011 87.022 22.2856C87.0449 22.27 87.0781 22.2622 87.1251 22.2622H87.2488C87.2855 22.2622 87.3176 22.2739 87.345 22.2972C87.3714 22.3205 87.3863 22.3477 87.3863 22.3788C87.3863 22.3943 87.3805 22.4099 87.3714 22.4254C87.3668 22.441 87.3588 22.4643 87.345 22.4954L86.0386 25.0946C85.979 25.215 85.9126 25.349 85.8392 25.4967C85.7659 25.6482 85.6834 25.7919 85.5918 25.9279C85.5002 26.0678 85.3925 26.1805 85.2688 26.2659C85.145 26.3553 85.0007 26.4 84.8358 26.4H84.6021ZM85.5904 25.0946L84.2447 22.4954C84.2172 22.4371 84.2034 22.3982 84.2034 22.3788C84.2034 22.3477 84.2172 22.3205 84.2447 22.2972C84.2721 22.2739 84.3042 22.2622 84.3409 22.2622H84.4715C84.5173 22.2622 84.5517 22.272 84.5746 22.2914C84.5975 22.3069 84.6158 22.3263 84.6296 22.3497L85.7991 24.6783L85.5904 25.0946Z" fill="white"/>
<path d="M90.8104 25.2927C90.7646 25.2927 90.7279 25.281 90.7005 25.2577C90.673 25.2344 90.6592 25.2033 90.6592 25.1645V23.9756C90.5309 24.0844 90.3751 24.164 90.1918 24.2146C90.0086 24.2612 89.7978 24.2845 89.5595 24.2845C89.17 24.2845 88.8653 24.2165 88.6454 24.0805C88.43 23.9445 88.3223 23.7231 88.3223 23.4161V22.3905C88.3223 22.3516 88.3361 22.3205 88.3636 22.2972C88.3911 22.2739 88.4277 22.2622 88.4735 22.2622H88.5904C88.6362 22.2622 88.6729 22.2739 88.7004 22.2972C88.7278 22.3205 88.7416 22.3516 88.7416 22.3905V23.387C88.7416 23.5774 88.8103 23.7192 88.9478 23.8124C89.0898 23.9018 89.3029 23.9465 89.587 23.9465C89.9123 23.9465 90.1712 23.9135 90.3637 23.8474C90.5607 23.7814 90.6592 23.659 90.6592 23.4803V22.3905C90.6592 22.3516 90.673 22.3205 90.7005 22.2972C90.7279 22.2739 90.7646 22.2622 90.8104 22.2622H90.9273C90.9731 22.2622 91.0097 22.2739 91.0372 22.2972C91.0647 22.3205 91.0785 22.3516 91.0785 22.3905V25.1645C91.0785 25.2033 91.0647 25.2344 91.0372 25.2577C91.0097 25.281 90.9731 25.2927 90.9273 25.2927H90.8104Z" fill="white"/>
<path d="M93.9332 25.351C93.4888 25.351 93.1359 25.2286 92.8748 24.9838C92.6136 24.7352 92.4647 24.4108 92.428 24.0106C92.4234 23.9523 92.4211 23.8746 92.4211 23.7775C92.4211 23.6804 92.4234 23.6027 92.428 23.5444C92.4509 23.2802 92.5242 23.0471 92.648 22.845C92.7717 22.643 92.9412 22.4857 93.1566 22.373C93.3765 22.2603 93.6354 22.204 93.9332 22.204C94.254 22.204 94.5266 22.2642 94.7512 22.3846C94.9757 22.5051 95.1475 22.678 95.2666 22.9033C95.3904 23.1287 95.4522 23.3967 95.4522 23.7076V23.795C95.4522 23.8338 95.4362 23.8649 95.4041 23.8882C95.3766 23.9115 95.34 23.9232 95.2941 23.9232H92.8473C92.8473 23.9232 92.8473 23.931 92.8473 23.9465C92.8473 23.962 92.8473 23.9737 92.8473 23.9815C92.8564 24.1563 92.9046 24.3234 92.9916 24.4827C93.0787 24.6381 93.2024 24.7663 93.3628 24.8673C93.5231 24.9644 93.7133 25.013 93.9332 25.013C94.1303 25.013 94.2929 24.9877 94.4212 24.9372C94.5541 24.8867 94.6595 24.8323 94.7374 24.774C94.8153 24.7119 94.8657 24.6653 94.8886 24.6342C94.9299 24.5837 94.9619 24.5545 94.9848 24.5468C95.0078 24.5351 95.0444 24.5293 95.0948 24.5293H95.2048C95.246 24.5293 95.2804 24.5409 95.3079 24.5642C95.34 24.5837 95.3537 24.6109 95.3491 24.6458C95.3445 24.7002 95.3079 24.7682 95.2391 24.8498C95.175 24.9275 95.0811 25.0052 94.9573 25.0829C94.8382 25.1606 94.6916 25.2247 94.5175 25.2752C94.3433 25.3257 94.1486 25.351 93.9332 25.351ZM92.8473 23.5968H95.0329V23.5735C95.0329 23.3793 94.9894 23.2044 94.9024 23.049C94.8153 22.8936 94.6893 22.7712 94.5243 22.6819C94.3594 22.5886 94.1623 22.542 93.9332 22.542C93.7041 22.542 93.5071 22.5886 93.3421 22.6819C93.1818 22.7712 93.058 22.8936 92.971 23.049C92.8885 23.2044 92.8473 23.3793 92.8473 23.5735V23.5968Z" fill="white"/>
<path d="M96.923 25.2927C96.8772 25.2927 96.8405 25.281 96.813 25.2577C96.7856 25.2344 96.7718 25.2033 96.7718 25.1645V22.3905C96.7718 22.3516 96.7856 22.3205 96.813 22.2972C96.8405 22.2739 96.8772 22.2622 96.923 22.2622H97.0399C97.0857 22.2622 97.1223 22.2739 97.1498 22.2972C97.1773 22.3205 97.1911 22.3516 97.1911 22.3905V23.5735H99.3355V22.3905C99.3355 22.3516 99.3493 22.3205 99.3768 22.2972C99.4042 22.2739 99.4409 22.2622 99.4867 22.2622H99.6036C99.6494 22.2622 99.686 22.2739 99.7135 22.2972C99.741 22.3205 99.7548 22.3516 99.7548 22.3905V25.1645C99.7548 25.2033 99.741 25.2344 99.7135 25.2577C99.686 25.281 99.6494 25.2927 99.6036 25.2927H99.4867C99.4409 25.2927 99.4042 25.281 99.3768 25.2577C99.3493 25.2344 99.3355 25.2033 99.3355 25.1645V23.9115H97.1911V25.1645C97.1911 25.2033 97.1773 25.2344 97.1498 25.2577C97.1223 25.281 97.0857 25.2927 97.0399 25.2927H96.923Z" fill="white"/>
<path d="M101.416 25.2927C101.38 25.2927 101.348 25.281 101.32 25.2577C101.293 25.2344 101.279 25.2072 101.279 25.1761V22.3905C101.279 22.3516 101.293 22.3205 101.32 22.2972C101.348 22.2739 101.384 22.2622 101.43 22.2622H101.547C101.593 22.2622 101.629 22.2739 101.657 22.2972C101.684 22.3205 101.698 22.3516 101.698 22.3905V25.0071V24.8315L103.815 22.3497C103.838 22.3263 103.861 22.3069 103.884 22.2914C103.911 22.272 103.948 22.2622 103.994 22.2622H104.124C104.161 22.2622 104.193 22.2739 104.221 22.2972C104.248 22.3166 104.262 22.3419 104.262 22.373V25.1645C104.262 25.2033 104.248 25.2344 104.221 25.2577C104.193 25.281 104.156 25.2927 104.111 25.2927H103.994C103.948 25.2927 103.911 25.281 103.884 25.2577C103.856 25.2344 103.843 25.2033 103.843 25.1645L103.917 22.7711L103.987 22.6935L101.726 25.2053C101.707 25.2247 101.684 25.2441 101.657 25.2636C101.629 25.283 101.593 25.2927 101.547 25.2927H101.416Z" fill="white"/>
<path d="M107.112 25.351C106.667 25.351 106.314 25.2286 106.053 24.9838C105.792 24.7352 105.643 24.4108 105.606 24.0106C105.602 23.9523 105.599 23.8746 105.599 23.7775C105.599 23.6804 105.602 23.6027 105.606 23.5444C105.629 23.2802 105.703 23.0471 105.826 22.845C105.95 22.643 106.119 22.4857 106.335 22.373C106.555 22.2603 106.814 22.204 107.112 22.204C107.432 22.204 107.705 22.2642 107.929 22.3846C108.154 22.5051 108.326 22.678 108.445 22.9033C108.569 23.1287 108.631 23.3967 108.631 23.7076V23.795C108.631 23.8338 108.614 23.8649 108.582 23.8882C108.555 23.9115 108.518 23.9232 108.472 23.9232H106.026C106.026 23.9232 106.026 23.931 106.026 23.9465C106.026 23.962 106.026 23.9737 106.026 23.9815C106.035 24.1563 106.083 24.3234 106.17 24.4827C106.257 24.6381 106.381 24.7663 106.541 24.8673C106.701 24.9644 106.892 25.013 107.112 25.013C107.309 25.013 107.471 24.9877 107.6 24.9372C107.732 24.8867 107.838 24.8323 107.916 24.774C107.994 24.7119 108.044 24.6653 108.067 24.6342C108.108 24.5837 108.14 24.5545 108.163 24.5468C108.186 24.5351 108.223 24.5293 108.273 24.5293H108.383C108.424 24.5293 108.459 24.5409 108.486 24.5642C108.518 24.5837 108.532 24.6109 108.527 24.6458C108.523 24.7002 108.486 24.7682 108.417 24.8498C108.353 24.9275 108.259 25.0052 108.136 25.0829C108.017 25.1606 107.87 25.2247 107.696 25.2752C107.522 25.3257 107.327 25.351 107.112 25.351ZM106.026 23.5968H108.211V23.5735C108.211 23.3793 108.168 23.2044 108.081 23.049C107.994 22.8936 107.868 22.7712 107.703 22.6819C107.538 22.5886 107.341 22.542 107.112 22.542C106.882 22.542 106.685 22.5886 106.52 22.6819C106.36 22.7712 106.236 22.8936 106.149 23.049C106.067 23.2044 106.026 23.3793 106.026 23.5735V23.5968Z" fill="white"/>
<path d="M110.101 25.2927C110.055 25.2927 110.018 25.281 109.991 25.2577C109.963 25.2344 109.95 25.2033 109.95 25.1645V22.373C109.95 22.3419 109.963 22.3166 109.991 22.2972C110.023 22.2739 110.055 22.2622 110.087 22.2622H110.245C110.314 22.2622 110.367 22.2914 110.403 22.3497L111.675 24.3894L112.946 22.3497C112.983 22.2914 113.036 22.2622 113.105 22.2622H113.263C113.299 22.2622 113.331 22.2739 113.359 22.2972C113.386 22.3166 113.4 22.3419 113.4 22.373V25.1645C113.4 25.2033 113.386 25.2344 113.359 25.2577C113.331 25.281 113.295 25.2927 113.249 25.2927H113.132C113.086 25.2927 113.05 25.281 113.022 25.2577C112.995 25.2344 112.981 25.2033 112.981 25.1645L113.054 22.8645L113.18 22.6585L111.977 24.6342C111.954 24.673 111.927 24.7099 111.895 24.7449C111.863 24.7798 111.812 24.7973 111.744 24.7973H111.606C111.537 24.7973 111.487 24.7798 111.455 24.7449C111.423 24.7099 111.395 24.673 111.372 24.6342L110.204 22.7693L110.306 22.932L110.369 25.1645C110.369 25.2033 110.355 25.2344 110.328 25.2577C110.3 25.281 110.264 25.2927 110.218 25.2927H110.101Z" fill="white"/>
</svg>
