<svg width="275" height="50" viewBox="0 0 275 50" fill="none" xmlns="http://www.w3.org/2000/svg">
<path fill-rule="evenodd" clip-rule="evenodd" d="M17.3568 18.0199L17.7022 16.1082C9.01703 15.321 5.44146 18.9693 3.12733 22.0726C0.814817 25.1737 -0.411031 29.1315 0.124663 32.9497C0.948359 38.8207 5.44453 43.63 11.1171 45.3324C19.322 47.7948 28.8764 43.244 31.2733 34.9967L29.3756 34.463C29.1789 35.1397 28.8634 35.8435 28.4948 36.5348C27.9623 35.8187 27.6564 34.9584 27.3411 34.1361L27.3398 34.1326C26.9999 33.2461 26.6721 32.32 26.0656 31.571C24.3508 29.4535 21.5484 30.914 19.9507 32.3596L19.9482 32.3619C19.232 33.0099 18.6639 33.524 17.7651 33.8044C16.2487 34.2776 14.7782 33.1445 13.2408 33.3739C10.4816 33.7858 9.87677 37.4013 9.92589 39.6139C9.95046 40.7208 10.0997 41.9054 10.2352 42.9481C6.55186 41.3812 3.64594 38.2913 2.49723 34.5571C3.42435 34.8605 4.5136 35.0067 5.39586 34.4966C7.09333 33.5152 7.30036 31.5113 8.59338 30.2235C10.0066 28.8162 12.7029 30.5915 14.2212 28.565C15.1094 27.3795 15.1313 26.2105 15.1463 25.4088C15.1532 25.0394 15.1375 24.6401 15.2875 24.2951C15.3625 24.1226 15.5102 23.9102 15.908 23.6711C16.7659 23.1553 17.1673 22.3732 17.1763 21.5197C17.1845 20.7418 16.8696 19.977 16.4915 19.3376C16.2 18.8447 15.8317 18.3616 15.4352 17.9239C16.1031 17.8946 16.7416 17.9123 17.3568 18.0199ZM12.3152 43.647C17.9764 45.0749 24.131 42.998 27.4321 38.2911C26.973 37.8434 26.6259 37.3179 26.3485 36.7977C25.8048 35.7783 25.1874 32.3127 23.787 32.4256C21.6503 32.5977 20.3867 35.0234 18.3619 35.6552C16.5967 36.206 15.172 35.0495 13.5369 35.2936C11.9614 35.5288 11.8751 38.4833 11.8992 39.5715C11.9304 40.9785 12.1578 42.3277 12.3152 43.647ZM2.02634 32.2333C2.57583 32.5352 3.76664 33.1864 4.39571 32.8227C5.77611 32.0246 6.08363 29.96 7.18916 28.859C8.06728 27.9846 9.2936 27.9449 10.4612 27.9803L10.4639 27.9804C11.2162 28.0032 12.1325 28.0803 12.6324 27.413C13.1353 26.7418 13.1507 26.1591 13.1721 25.3485C13.1885 24.7302 13.2218 24.1086 13.4728 23.5315C13.732 22.9352 14.1848 22.4315 14.8787 22.0143C15.1418 21.8562 15.2005 21.7006 15.2026 21.4996C15.2055 21.2229 15.0824 20.8162 14.7854 20.3139C14.2675 19.4382 13.422 18.6032 12.8079 18.1745C9.56993 18.6366 6.7013 20.5625 4.71884 23.221C2.76043 25.8472 1.72217 29.1164 2.02634 32.2333Z" fill="white"/>
<path fill-rule="evenodd" clip-rule="evenodd" d="M27.0532 3H28.0401C29.2653 3 30.4532 3.26511 31.4406 3.90259C32.4443 4.55064 33.1699 5.53895 33.5188 6.84435C34.7782 11.557 33.3699 15.7763 31.5498 19.7806V32.7874L27.0532 31.4422V3ZM29.027 5.02519V30.0032L29.576 30.1675V19.3639L29.6633 19.1736C31.4903 15.1881 32.7068 11.4425 31.6099 7.33803C31.3766 6.46534 30.927 5.89347 30.3576 5.52586C29.9894 5.28815 29.5432 5.11846 29.027 5.02519ZM20.2858 12.6507L20.2861 3.40534L22.2599 3.4054L22.2596 12.6847C22.9456 12.576 23.346 12.335 23.5954 12.0747C23.9678 11.6859 24.1869 11.0661 24.245 10.1419C24.3028 9.22302 24.194 8.15955 24.056 7.00963C24.0417 6.89082 24.0271 6.7709 24.0124 6.65013L24.0112 6.64054L24.011 6.63832C23.8885 5.63334 23.7591 4.57148 23.7591 3.61851H25.7329C25.7329 4.4472 25.8469 5.38575 25.9715 6.41273C25.9863 6.53457 26.0012 6.65766 26.0162 6.78195C26.1522 7.91498 26.2854 9.14407 26.2151 10.2619C26.1451 11.3745 25.8659 12.5355 25.032 13.4062C24.3576 14.1103 23.4282 14.5152 22.2593 14.6428L22.2545 29.6724L20.2808 29.6718L20.2855 14.6165C19.1154 14.4613 18.1897 14.0474 17.5183 13.3514C16.6862 12.4888 16.4033 11.3535 16.332 10.2566C16.2608 9.16002 16.3936 7.95236 16.5287 6.8283C16.5415 6.72165 16.5543 6.61571 16.5671 6.5105C16.6932 5.47002 16.8107 4.50071 16.8107 3.61852L18.7845 3.6185C18.7845 4.62376 18.6522 5.71159 18.5286 6.72814L18.5283 6.72997C18.515 6.83963 18.5018 6.94845 18.4888 7.05624C18.3512 8.20121 18.2437 9.23879 18.3018 10.1328C18.3599 11.0265 18.5761 11.6272 18.9501 12.0149C19.2033 12.2774 19.6066 12.5218 20.2858 12.6507Z" fill="white"/>
<path d="M51.0024 28.9999C49.3807 28.9999 47.9635 28.7142 46.7511 28.1427C45.5537 27.5713 44.6293 26.7801 43.9776 25.7691C43.3258 24.7434 43 23.5641 43 22.2307C43 20.8973 43.2426 19.6666 43.7275 18.5384C44.2124 17.4103 44.8944 16.4358 45.7735 15.6154C46.6527 14.7802 47.6984 14.1356 48.9108 13.6813C50.1385 13.227 51.495 13 52.9802 13C54.4504 13 55.7538 13.249 56.8905 13.7472C58.0272 14.2455 58.8759 14.9633 59.4367 15.9011L56.1857 18.4065C55.822 17.8204 55.3446 17.3736 54.7535 17.0659C54.1776 16.7582 53.4879 16.6044 52.6847 16.6044C51.9117 16.6044 51.207 16.7362 50.5704 17C49.9491 17.2637 49.411 17.6373 48.9563 18.1208C48.5016 18.6043 48.1531 19.1758 47.9105 19.8351C47.668 20.4797 47.5468 21.183 47.5468 21.945C47.5468 22.6336 47.6984 23.2417 48.0015 23.7691C48.3198 24.2819 48.7669 24.6849 49.3428 24.9779C49.9339 25.2564 50.6311 25.3955 51.4343 25.3955C52.1466 25.3955 52.8286 25.2564 53.4804 24.9779C54.1472 24.6995 54.761 24.2454 55.3218 23.6153L57.9817 26.1428C57.0876 27.183 56.0569 27.923 54.8899 28.3625C53.7229 28.7874 52.4271 28.9999 51.0024 28.9999Z" fill="white"/>
<path d="M68.3533 29C66.7164 29 65.3069 28.7143 64.1247 28.1429C62.9426 27.5567 62.0332 26.7583 61.3966 25.7473C60.7601 24.7363 60.4418 23.5642 60.4418 22.2308C60.4418 20.8829 60.6844 19.6521 61.1693 18.5385C61.6544 17.4104 62.3364 16.4359 63.2154 15.6155C64.0945 14.7803 65.1402 14.1357 66.3527 13.6814C67.5803 13.2272 68.9216 13.0001 70.3766 13.0001C72.0134 13.0001 73.423 13.2931 74.6051 13.8792C75.7873 14.4507 76.6967 15.2419 77.3332 16.2528C77.9698 17.2638 78.288 18.4359 78.288 19.7693C78.288 21.1172 78.0457 22.3554 77.5605 23.4836C77.0756 24.5972 76.3936 25.5715 75.5145 26.4066C74.6356 27.2271 73.5821 27.8644 72.3545 28.3187C71.142 28.773 69.8082 29 68.3533 29ZM68.7397 25.3956C69.5279 25.3956 70.2251 25.2565 70.8313 24.9781C71.4528 24.6996 71.9757 24.3114 72.3999 23.8132C72.8396 23.3005 73.1729 22.7216 73.4002 22.077C73.6276 21.4323 73.7412 20.751 73.7412 20.033C73.7412 19.3445 73.5898 18.7436 73.2865 18.2309C72.9987 17.7181 72.5743 17.3225 72.0134 17.0441C71.4678 16.7511 70.7935 16.6045 69.9901 16.6045C69.2172 16.6045 68.5201 16.7436 67.8986 17.0221C67.2772 17.3005 66.7468 17.6961 66.3072 18.2089C65.8829 18.7071 65.557 19.2785 65.3296 19.9231C65.1023 20.5678 64.9886 21.2491 64.9886 21.9671C64.9886 22.6411 65.1327 23.2418 65.4206 23.7693C65.7238 24.282 66.1481 24.6851 66.6937 24.9781C67.2545 25.2565 67.9365 25.3956 68.7397 25.3956Z" fill="white"/>
<path d="M88.6914 29C87.0546 29 85.6451 28.7143 84.4629 28.1429C83.2807 27.5567 82.3713 26.7583 81.7348 25.7473C81.0982 24.7363 80.78 23.5642 80.78 22.2308C80.78 20.8829 81.0223 19.6521 81.5075 18.5385C81.9924 17.4104 82.6744 16.4359 83.5535 15.6155C84.4324 14.7803 85.4782 14.1357 86.6908 13.6814C87.9184 13.2272 89.2598 13.0001 90.7147 13.0001C92.3516 13.0001 93.7611 13.2931 94.9433 13.8792C96.1254 14.4507 97.0348 15.2419 97.6713 16.2528C98.3079 17.2638 98.6262 18.4359 98.6262 19.7693C98.6262 21.1172 98.3836 22.3554 97.8987 23.4836C97.4136 24.5972 96.7315 25.5715 95.8526 26.4066C94.9735 27.2271 93.9202 27.8644 92.6926 28.3187C91.48 28.773 90.1464 29 88.6914 29ZM89.0779 25.3956C89.8659 25.3956 90.5631 25.2565 91.1694 24.9781C91.7908 24.6996 92.3136 24.3114 92.7381 23.8132C93.1775 23.3005 93.511 22.7216 93.7383 22.077C93.9657 21.4323 94.0794 20.751 94.0794 20.033C94.0794 19.3445 93.9277 18.7436 93.6247 18.2309C93.3367 17.7181 92.9122 17.3225 92.3516 17.0441C91.806 16.7511 91.1315 16.6045 90.3283 16.6045C89.5553 16.6045 88.8581 16.7436 88.2367 17.0221C87.6152 17.3005 87.0848 17.6961 86.6453 18.2089C86.2209 18.7071 85.8951 19.2785 85.6678 19.9231C85.4404 20.5678 85.3268 21.2491 85.3268 21.9671C85.3268 22.6411 85.4707 23.2418 85.7587 23.7693C86.0618 24.282 86.4862 24.6851 87.0318 24.9781C87.5925 25.2565 88.2745 25.3956 89.0779 25.3956Z" fill="white"/>
<path d="M105.743 24.328L106.875 19.039L114.192 13.0001H119.611L111.121 20.0861L108.051 22.5424L105.743 24.328ZM100.375 28.2156L103.631 13.0001H108.167L104.911 28.2156H100.375ZM111.563 28.2156L108.051 22.5424L111.121 20.0861L116.704 28.2156H111.563Z" fill="white"/>
<path d="M123.77 28.3846L126.248 16.4506H121.36L122.087 13.0001H136.342L135.614 16.4506H130.749L128.271 28.3846H123.77Z" fill="white"/>
<path d="M144.198 29C142.561 29 141.151 28.7143 139.969 28.1429C138.787 27.5567 137.878 26.7583 137.241 25.7473C136.605 24.7363 136.286 23.5642 136.286 22.2308C136.286 20.8829 136.529 19.6521 137.014 18.5385C137.499 17.4104 138.181 16.4359 139.06 15.6155C139.939 14.7803 140.985 14.1357 142.197 13.6814C143.425 13.2272 144.766 13.0001 146.221 13.0001C147.858 13.0001 149.267 13.2931 150.45 13.8792C151.632 14.4507 152.541 15.2419 153.178 16.2528C153.814 17.2638 154.133 18.4359 154.133 19.7693C154.133 21.1172 153.889 22.3554 153.405 23.4836C152.921 24.5972 152.239 25.5715 151.359 26.4066C150.479 27.2271 149.427 27.8644 148.199 28.3187C146.987 28.773 145.653 29 144.198 29ZM144.584 25.3956C145.372 25.3956 146.07 25.2565 146.676 24.9781C147.297 24.6996 147.82 24.3114 148.244 23.8132C148.684 23.3005 149.017 22.7216 149.245 22.077C149.472 21.4323 149.586 20.751 149.586 20.033C149.586 19.3445 149.434 18.7436 149.131 18.2309C148.843 17.7181 148.419 17.3225 147.858 17.0441C147.312 16.7511 146.638 16.6045 145.835 16.6045C145.062 16.6045 144.365 16.7436 143.743 17.0221C143.122 17.3005 142.591 17.6961 142.152 18.2089C141.727 18.7071 141.402 19.2785 141.174 19.9231C140.947 20.5678 140.833 21.2491 140.833 21.9671C140.833 22.6411 140.977 23.2418 141.265 23.7693C141.568 24.282 141.993 24.6851 142.538 24.9781C143.099 25.2565 143.781 25.3956 144.584 25.3956Z" fill="white"/>
<path d="M163.275 28.6923C161.684 28.6923 160.351 28.3993 159.274 27.8132C158.214 27.2125 157.464 26.3774 157.023 25.3077C156.584 24.2235 156.509 22.9634 156.796 21.5275L158.569 13.0001H163.07L161.32 21.4616C161.199 22.077 161.161 22.6117 161.206 23.066C161.252 23.5202 161.381 23.9011 161.593 24.2088C161.82 24.5165 162.116 24.7436 162.479 24.8901C162.859 25.022 163.307 25.0879 163.821 25.0879C164.443 25.0879 164.98 24.9708 165.435 24.7363C165.905 24.4873 166.292 24.0989 166.594 23.5715C166.913 23.0293 167.156 22.326 167.322 21.4616L169.072 13.0001H173.505L171.709 21.7253C171.241 24.011 170.3 25.7473 168.89 26.9341C167.481 28.1062 165.61 28.6923 163.275 28.6923Z" fill="white"/>
<path d="M190 17.8473C190 19.2385 189.608 20.4411 188.825 21.4555C188.041 22.4553 186.945 23.1872 185.532 23.6509L188.272 28.2156H183.505L181.109 24.1727H178.806L177.954 28.2156H173.394L176.618 13.0001H183.505C185.562 13.0001 187.16 13.4275 188.295 14.2826C189.432 15.1376 190 16.3257 190 17.8473ZM185.394 18.2603C185.394 17.6371 185.172 17.1736 184.726 16.8692C184.28 16.5504 183.659 16.391 182.86 16.391H180.464L179.497 20.8469H182.214C183.229 20.8469 184.012 20.6224 184.565 20.173C185.117 19.7238 185.394 19.0863 185.394 18.2603Z" fill="white"/>
<path d="M43.252 42.1545C43.1756 42.1545 43.1146 42.1351 43.0687 42.0962C43.0229 42.0574 43 42.0056 43 41.9408V35.5788C43 35.5076 43.0229 35.4525 43.0687 35.4137C43.1146 35.3748 43.1756 35.3554 43.252 35.3554H47.4447C47.5287 35.3554 47.5936 35.3748 47.6394 35.4137C47.6852 35.4525 47.7081 35.5076 47.7081 35.5788V35.7245C47.7081 35.7892 47.6852 35.841 47.6394 35.8799C47.5936 35.9187 47.5287 35.9382 47.4447 35.9382H43.7217V41.9408C43.7217 42.0056 43.6988 42.0574 43.653 42.0962C43.6071 42.1351 43.5422 42.1545 43.4582 42.1545H43.252Z" fill="white"/>
<path d="M50.9258 42.2517C50.5592 42.2517 50.2194 42.1869 49.9062 42.0574C49.6008 41.9279 49.3526 41.7563 49.1616 41.5426C48.9707 41.3225 48.8753 41.0764 48.8753 40.8044C48.8753 40.3641 49.0853 40.0112 49.5053 39.7457C49.9253 39.4802 50.4714 39.3086 51.1434 39.2309L52.9534 39.0172V38.6773C52.9534 38.3341 52.8274 38.0654 52.5753 37.8711C52.331 37.6704 51.9377 37.57 51.3954 37.57C50.9983 37.57 50.6776 37.638 50.4332 37.774C50.1888 37.9035 50.0208 38.0751 49.9292 38.2888C49.891 38.3859 49.8184 38.4345 49.7115 38.4345H49.5282C49.4366 38.4345 49.3717 38.415 49.3335 38.3762C49.2953 38.3309 49.2762 38.2791 49.2762 38.2208C49.2762 38.1301 49.3144 38.0168 49.3908 37.8808C49.4748 37.7448 49.6008 37.6121 49.7688 37.4826C49.9368 37.3466 50.1544 37.2333 50.4217 37.1426C50.689 37.052 51.0136 37.0067 51.3954 37.0067C51.846 37.0067 52.2164 37.0585 52.5066 37.1621C52.8044 37.2657 53.0336 37.4016 53.1939 37.57C53.3619 37.7319 53.4803 37.9132 53.549 38.1139C53.6178 38.3147 53.6521 38.5122 53.6521 38.7064V41.9408C53.6521 42.0056 53.6292 42.0574 53.5834 42.0963C53.5376 42.1351 53.4765 42.1545 53.4001 42.1545H53.2054C53.129 42.1545 53.0679 42.1351 53.0221 42.0963C52.9763 42.0574 52.9534 42.0056 52.9534 41.9408V41.4843C52.8617 41.6009 52.7319 41.7174 52.5639 41.834C52.3959 41.9506 52.1782 42.0509 51.9109 42.1351C51.6513 42.2128 51.3229 42.2517 50.9258 42.2517ZM51.0403 41.6883C51.3916 41.6883 51.7124 41.6236 52.0026 41.494C52.2928 41.3645 52.5219 41.167 52.6899 40.9016C52.8655 40.6296 52.9534 40.2896 52.9534 39.8817V39.5515L51.4756 39.7263C50.8494 39.7975 50.3759 39.9205 50.0552 40.0954C49.7344 40.2702 49.574 40.4904 49.574 40.7559C49.574 40.9695 49.6466 41.1444 49.7917 41.2804C49.9368 41.4163 50.1201 41.5199 50.3415 41.5912C50.5706 41.6559 50.8036 41.6883 51.0403 41.6883Z" fill="white"/>
<path d="M58.4082 42.2517C57.8736 42.2517 57.4192 42.1642 57.045 41.9894C56.6708 41.8081 56.3844 41.5491 56.1858 41.2124C55.9949 40.8757 55.8918 40.4774 55.8765 40.0177C55.8689 39.9205 55.8651 39.791 55.8651 39.6292C55.8651 39.4673 55.8689 39.3378 55.8765 39.2406C55.8918 38.7744 55.9949 38.3762 56.1858 38.0459C56.3844 37.7092 56.6708 37.4534 57.045 37.2786C57.4192 37.0973 57.8736 37.0067 58.4082 37.0067C58.8129 37.0067 59.1604 37.0552 59.4506 37.1523C59.7484 37.243 59.9928 37.366 60.1837 37.5214C60.3747 37.6704 60.5198 37.8355 60.619 38.0168C60.7183 38.1981 60.7718 38.3762 60.7794 38.551C60.787 38.6158 60.7641 38.6676 60.7107 38.7064C60.6572 38.7453 60.5961 38.7647 60.5274 38.7647H60.367C60.2906 38.7647 60.2334 38.7518 60.1952 38.7258C60.1646 38.6935 60.1303 38.6384 60.0921 38.5607C59.9317 38.1916 59.7102 37.9359 59.4277 37.7934C59.1528 37.6445 58.8129 37.57 58.4082 37.57C57.8888 37.57 57.4574 37.706 57.1137 37.9779C56.7777 38.2434 56.5982 38.6805 56.5753 39.2892C56.56 39.5158 56.56 39.7425 56.5753 39.9691C56.5982 40.5778 56.7777 41.0181 57.1137 41.2901C57.4574 41.5556 57.8888 41.6883 58.4082 41.6883C58.8129 41.6883 59.1528 41.6171 59.4277 41.4746C59.7102 41.3257 59.9317 41.0667 60.0921 40.6976C60.1303 40.6199 60.1646 40.5681 60.1952 40.5422C60.2334 40.5098 60.2906 40.4936 60.367 40.4936H60.5274C60.5961 40.4936 60.6572 40.513 60.7107 40.5519C60.7641 40.5907 60.787 40.6425 60.7794 40.7073C60.7718 40.8498 60.7374 40.9922 60.6763 41.1347C60.6152 41.2771 60.5198 41.4163 60.3899 41.5523C60.2677 41.6883 60.115 41.8081 59.9317 41.9117C59.7484 42.0153 59.527 42.0963 59.2673 42.1545C59.0153 42.2193 58.7289 42.2517 58.4082 42.2517Z" fill="white"/>
<path d="M64.8011 42.1545C64.7247 42.1545 64.6636 42.1351 64.6178 42.0962C64.572 42.0574 64.5491 42.0056 64.5491 41.9408V37.6671H62.4528C62.3764 37.6671 62.3153 37.6477 62.2695 37.6088C62.2237 37.57 62.2008 37.5182 62.2008 37.4534V37.3174C62.2008 37.2527 62.2237 37.2009 62.2695 37.162C62.3153 37.1232 62.3764 37.1037 62.4528 37.1037H67.3442C67.4206 37.1037 67.4817 37.1232 67.5275 37.162C67.5733 37.2009 67.5962 37.2527 67.5962 37.3174V37.4534C67.5962 37.5182 67.5733 37.57 67.5275 37.6088C67.4817 37.6477 67.4206 37.6671 67.3442 37.6671H65.2479V41.9408C65.2479 42.0056 65.225 42.0574 65.1791 42.0962C65.1333 42.1351 65.0722 42.1545 64.9959 42.1545H64.8011Z" fill="white"/>
<path d="M69.6255 44C69.5492 44 69.4881 43.9806 69.4423 43.9417C69.3964 43.9029 69.3735 43.8511 69.3735 43.7863V37.3175C69.3735 37.2527 69.3964 37.2009 69.4423 37.1621C69.4881 37.1232 69.5492 37.1038 69.6255 37.1038H69.8203C69.8967 37.1038 69.9577 37.1232 70.0036 37.1621C70.0494 37.2009 70.0723 37.2527 70.0723 37.3175V37.774C70.2632 37.5538 70.5114 37.3725 70.8169 37.2301C71.13 37.0811 71.5233 37.0067 71.9968 37.0067C72.4474 37.0067 72.8254 37.0746 73.1309 37.2106C73.4364 37.3401 73.6845 37.515 73.8755 37.7351C74.0664 37.9553 74.2077 38.2013 74.2993 38.4733C74.391 38.7453 74.4406 39.0237 74.4482 39.3086C74.4559 39.4058 74.4597 39.5126 74.4597 39.6292C74.4597 39.7457 74.4559 39.8526 74.4482 39.9497C74.4406 40.2346 74.391 40.513 74.2993 40.785C74.2077 41.057 74.0664 41.303 73.8755 41.5232C73.6845 41.7433 73.4364 41.9214 73.1309 42.0574C72.8254 42.1869 72.4474 42.2517 71.9968 42.2517C71.5233 42.2517 71.13 42.1772 70.8169 42.0283C70.5114 41.8793 70.2632 41.698 70.0723 41.4843V43.7863C70.0723 43.8511 70.0494 43.9029 70.0036 43.9417C69.9577 43.9806 69.8967 44 69.8203 44H69.6255ZM71.9281 41.6883C72.3786 41.6883 72.7338 41.6041 72.9934 41.4358C73.2531 41.2674 73.4402 41.0473 73.5547 40.7753C73.6693 40.5033 73.7342 40.2119 73.7495 39.9011C73.7571 39.7198 73.7571 39.5385 73.7495 39.3572C73.7342 39.0464 73.6693 38.755 73.5547 38.483C73.4402 38.2111 73.2531 37.9909 72.9934 37.8225C72.7338 37.6542 72.3786 37.57 71.9281 37.57C71.4928 37.57 71.1415 37.6574 70.8742 37.8323C70.6069 38.0071 70.4083 38.2272 70.2785 38.4927C70.1563 38.7517 70.0876 39.014 70.0723 39.2795C70.0647 39.3766 70.0609 39.5029 70.0609 39.6583C70.0609 39.8137 70.0647 39.94 70.0723 40.0371C70.0799 40.2961 70.1487 40.5519 70.2785 40.8044C70.416 41.057 70.6183 41.2674 70.8856 41.4358C71.1606 41.6041 71.508 41.6883 71.9281 41.6883Z" fill="white"/>
<path d="M78.9741 42.2517C78.4242 42.2517 77.9622 42.1545 77.588 41.9603C77.2214 41.766 76.9389 41.5005 76.7403 41.1638C76.5494 40.8271 76.4463 40.4515 76.431 40.0371C76.4234 39.94 76.4195 39.804 76.4195 39.6292C76.4195 39.4543 76.4234 39.3183 76.431 39.2212C76.4463 38.8003 76.5494 38.4247 76.7403 38.0945C76.9389 37.7578 77.2214 37.4923 77.588 37.298C77.9622 37.1038 78.4242 37.0067 78.9741 37.0067C79.5239 37.0067 79.9822 37.1038 80.3487 37.298C80.7229 37.4923 81.0055 37.7578 81.1964 38.0945C81.395 38.4247 81.5019 38.8003 81.5172 39.2212C81.5248 39.3183 81.5286 39.4543 81.5286 39.6292C81.5286 39.804 81.5248 39.94 81.5172 40.0371C81.5019 40.4515 81.395 40.8271 81.1964 41.1638C81.0055 41.5005 80.7229 41.766 80.3487 41.9603C79.9822 42.1545 79.5239 42.2517 78.9741 42.2517ZM78.9741 41.6883C79.5087 41.6883 79.944 41.5426 80.28 41.2512C80.616 40.9598 80.7955 40.5389 80.8184 39.9885C80.826 39.8914 80.8299 39.7716 80.8299 39.6292C80.8299 39.4867 80.826 39.3669 80.8184 39.2698C80.7955 38.7129 80.616 38.292 80.28 38.0071C79.944 37.7157 79.5087 37.57 78.9741 37.57C78.4395 37.57 78.0042 37.7157 77.6682 38.0071C77.3321 38.292 77.1527 38.7129 77.1298 39.2698C77.1221 39.3669 77.1183 39.4867 77.1183 39.6292C77.1183 39.7716 77.1221 39.8914 77.1298 39.9885C77.1527 40.5389 77.3321 40.9598 77.6682 41.2512C78.0042 41.5426 78.4395 41.6883 78.9741 41.6883Z" fill="white"/>
<path d="M85.6007 42.1545C85.5244 42.1545 85.4633 42.1351 85.4174 42.0962C85.3716 42.0574 85.3487 42.0056 85.3487 41.9408V37.6671H83.2524C83.176 37.6671 83.1149 37.6477 83.0691 37.6088C83.0233 37.57 83.0004 37.5182 83.0004 37.4534V37.3174C83.0004 37.2527 83.0233 37.2009 83.0691 37.162C83.1149 37.1232 83.176 37.1037 83.2524 37.1037H88.1438C88.2202 37.1037 88.2813 37.1232 88.3271 37.162C88.3729 37.2009 88.3958 37.2527 88.3958 37.3174V37.4534C88.3958 37.5182 88.3729 37.57 88.3271 37.6088C88.2813 37.6477 88.2202 37.6671 88.1438 37.6671H86.0475V41.9408C86.0475 42.0056 86.0246 42.0574 85.9788 42.0962C85.9329 42.1351 85.8718 42.1545 85.7955 42.1545H85.6007Z" fill="white"/>
<path d="M90.2982 44C90.2219 44 90.1608 43.9805 90.1149 43.9417C90.0691 43.9028 90.0462 43.851 90.0462 43.7863V43.6503C90.0462 43.5855 90.0691 43.5337 90.1149 43.4949C90.1608 43.456 90.2219 43.4366 90.2982 43.4366H90.5617C90.745 43.4366 90.8939 43.4042 91.0085 43.3395C91.123 43.2747 91.2261 43.1646 91.3178 43.0092C91.417 42.8538 91.5354 42.6401 91.6729 42.3682L94.2389 37.2494C94.2618 37.2041 94.2923 37.1685 94.3305 37.1426C94.3687 37.1167 94.426 37.1037 94.5023 37.1037H94.7085C94.7696 37.1037 94.8231 37.1232 94.8689 37.162C94.9147 37.2009 94.9376 37.2462 94.9376 37.298C94.9376 37.3239 94.93 37.3498 94.9147 37.3757C94.9071 37.4016 94.8918 37.4405 94.8689 37.4923L92.6924 41.8243C92.5931 42.025 92.4824 42.2484 92.3602 42.4944C92.238 42.747 92.1005 42.9866 91.9478 43.2132C91.795 43.4463 91.6156 43.6341 91.4094 43.7766C91.2032 43.9255 90.9626 44 90.6877 44H90.2982ZM91.9224 41.8704L89.7026 37.4923C89.6567 37.3951 89.6338 37.3304 89.6338 37.298C89.6338 37.2462 89.6567 37.2009 89.7026 37.162C89.7484 37.1232 89.8018 37.1037 89.8629 37.1037H90.0806C90.1569 37.1037 90.2142 37.1199 90.2524 37.1523C90.2906 37.1782 90.3211 37.2106 90.344 37.2494L92.2947 41.1275L91.9224 41.8704Z" fill="white"/>
<path d="M97.177 44C97.1006 44 97.0395 43.9806 96.9937 43.9417C96.9479 43.9029 96.925 43.8511 96.925 43.7863V37.3175C96.925 37.2527 96.9479 37.2009 96.9937 37.1621C97.0395 37.1232 97.1006 37.1038 97.177 37.1038H97.3717C97.4481 37.1038 97.5092 37.1232 97.555 37.1621C97.6008 37.2009 97.6237 37.2527 97.6237 37.3175V37.774C97.8147 37.5538 98.0629 37.3725 98.3683 37.2301C98.6816 37.0811 99.0748 37.0067 99.5482 37.0067C99.9988 37.0067 100.377 37.0746 100.682 37.2106C100.988 37.3401 101.236 37.515 101.427 37.7351C101.618 37.9553 101.759 38.2013 101.851 38.4733C101.942 38.7453 101.992 39.0237 102 39.3086C102.008 39.4058 102.011 39.5126 102.011 39.6292C102.011 39.7457 102.008 39.8526 102 39.9497C101.992 40.2346 101.942 40.513 101.851 40.785C101.759 41.057 101.618 41.303 101.427 41.5232C101.236 41.7433 100.988 41.9214 100.682 42.0574C100.377 42.1869 99.9988 42.2517 99.5482 42.2517C99.0748 42.2517 98.6816 42.1772 98.3683 42.0283C98.0629 41.8793 97.8147 41.698 97.6237 41.4843V43.7863C97.6237 43.8511 97.6008 43.9029 97.555 43.9417C97.5092 43.9806 97.4481 44 97.3717 44H97.177ZM99.4795 41.6883C99.9301 41.6883 100.285 41.6041 100.545 41.4358C100.805 41.2674 100.992 41.0473 101.106 40.7753C101.221 40.5033 101.286 40.2119 101.301 39.9011C101.309 39.7198 101.309 39.5385 101.301 39.3572C101.286 39.0464 101.221 38.755 101.106 38.483C100.992 38.2111 100.805 37.9909 100.545 37.8225C100.285 37.6542 99.9301 37.57 99.4795 37.57C99.0442 37.57 98.6929 37.6574 98.4256 37.8323C98.1583 38.0071 97.9598 38.2272 97.8299 38.4927C97.7078 38.7517 97.639 39.014 97.6237 39.2795C97.6161 39.3766 97.6123 39.5029 97.6123 39.6583C97.6123 39.8137 97.6161 39.94 97.6237 40.0371C97.6314 40.2961 97.7001 40.5519 97.8299 40.8044C97.9674 41.057 98.1698 41.2674 98.4371 41.4358C98.712 41.6041 99.0595 41.6883 99.4795 41.6883Z" fill="white"/>
<path d="M104.508 42.1545C104.431 42.1545 104.37 42.1351 104.324 42.0962C104.279 42.0574 104.256 42.0056 104.256 41.9408V37.3174C104.256 37.2527 104.279 37.2009 104.324 37.162C104.37 37.1232 104.431 37.1037 104.508 37.1037H104.702C104.779 37.1037 104.84 37.1232 104.886 37.162C104.931 37.2009 104.954 37.2527 104.954 37.3174V38.7938H106.214C106.993 38.7938 107.547 38.9492 107.875 39.26C108.212 39.5708 108.38 39.9885 108.38 40.513C108.38 41.0828 108.189 41.5005 107.807 41.766C107.433 42.025 106.845 42.1545 106.043 42.1545H104.508ZM104.954 41.5911H106.146C106.68 41.5911 107.07 41.5134 107.314 41.358C107.559 41.1961 107.681 40.9145 107.681 40.513C107.681 40.1245 107.562 39.8363 107.326 39.6485C107.089 39.4543 106.696 39.3572 106.146 39.3572H104.954V41.5911ZM109.502 42.1545C109.426 42.1545 109.365 42.1351 109.319 42.0962C109.273 42.0574 109.25 42.0056 109.25 41.9408V37.3174C109.25 37.2527 109.273 37.2009 109.319 37.162C109.365 37.1232 109.426 37.1037 109.502 37.1037H109.697C109.773 37.1037 109.834 37.1232 109.88 37.162C109.926 37.2009 109.949 37.2527 109.949 37.3174V41.9408C109.949 42.0056 109.926 42.0574 109.88 42.0962C109.834 42.1351 109.773 42.1545 109.697 42.1545H109.502Z" fill="white"/>
<path d="M118.393 42.2517C117.858 42.2517 117.404 42.1642 117.029 41.9894C116.655 41.8081 116.369 41.5491 116.17 41.2124C115.979 40.8757 115.876 40.4774 115.861 40.0177C115.853 39.9205 115.849 39.791 115.849 39.6292C115.849 39.4673 115.853 39.3378 115.861 39.2406C115.876 38.7744 115.979 38.3762 116.17 38.0459C116.369 37.7092 116.655 37.4534 117.029 37.2786C117.404 37.0973 117.858 37.0067 118.393 37.0067C118.797 37.0067 119.145 37.0552 119.435 37.1523C119.733 37.243 119.977 37.366 120.168 37.5214C120.359 37.6704 120.504 37.8355 120.603 38.0168C120.703 38.1981 120.756 38.3762 120.764 38.551C120.771 38.6158 120.749 38.6676 120.695 38.7064C120.642 38.7453 120.581 38.7647 120.512 38.7647H120.351C120.275 38.7647 120.218 38.7518 120.18 38.7258C120.149 38.6935 120.115 38.6384 120.076 38.5607C119.916 38.1916 119.695 37.9359 119.412 37.7934C119.137 37.6445 118.797 37.57 118.393 37.57C117.873 37.57 117.442 37.706 117.098 37.9779C116.762 38.2434 116.583 38.6805 116.56 39.2892C116.544 39.5158 116.544 39.7425 116.56 39.9691C116.583 40.5778 116.762 41.0181 117.098 41.2901C117.442 41.5556 117.873 41.6883 118.393 41.6883C118.797 41.6883 119.137 41.6171 119.412 41.4746C119.695 41.3257 119.916 41.0667 120.076 40.6976C120.115 40.6199 120.149 40.5681 120.18 40.5422C120.218 40.5098 120.275 40.4936 120.351 40.4936H120.512C120.581 40.4936 120.642 40.513 120.695 40.5519C120.749 40.5907 120.771 40.6425 120.764 40.7073C120.756 40.8498 120.722 40.9922 120.661 41.1347C120.6 41.2771 120.504 41.4163 120.374 41.5523C120.252 41.6883 120.099 41.8081 119.916 41.9117C119.733 42.0153 119.511 42.0963 119.252 42.1545C119 42.2193 118.713 42.2517 118.393 42.2517Z" fill="white"/>
<path d="M128.873 42.2517C128.323 42.2517 127.861 42.1545 127.487 41.9603C127.12 41.766 126.837 41.5005 126.639 41.1638C126.448 40.8271 126.345 40.4515 126.33 40.0371C126.322 39.94 126.318 39.804 126.318 39.6292C126.318 39.4543 126.322 39.3183 126.33 39.2212C126.345 38.8003 126.448 38.4247 126.639 38.0945C126.837 37.7578 127.12 37.4923 127.487 37.298C127.861 37.1038 128.323 37.0067 128.873 37.0067C129.422 37.0067 129.881 37.1038 130.247 37.298C130.621 37.4923 130.904 37.7578 131.095 38.0945C131.293 38.4247 131.4 38.8003 131.416 39.2212C131.423 39.3183 131.427 39.4543 131.427 39.6292C131.427 39.804 131.423 39.94 131.416 40.0371C131.4 40.4515 131.293 40.8271 131.095 41.1638C130.904 41.5005 130.621 41.766 130.247 41.9603C129.881 42.1545 129.422 42.2517 128.873 42.2517ZM128.873 41.6883C129.407 41.6883 129.842 41.5426 130.179 41.2512C130.515 40.9598 130.694 40.5389 130.717 39.9885C130.725 39.8914 130.728 39.7716 130.728 39.6292C130.728 39.4867 130.725 39.3669 130.717 39.2698C130.694 38.7129 130.515 38.292 130.179 38.0071C129.842 37.7157 129.407 37.57 128.873 37.57C128.338 37.57 127.903 37.7157 127.567 38.0071C127.231 38.292 127.051 38.7129 127.028 39.2698C127.021 39.3669 127.017 39.4867 127.017 39.6292C127.017 39.7716 127.021 39.8914 127.028 39.9885C127.051 40.5389 127.231 40.9598 127.567 41.2512C127.903 41.5426 128.338 41.6883 128.873 41.6883Z" fill="white"/>
<path d="M136.051 42.2514C135.501 42.2514 135.039 42.1543 134.665 41.96C134.29 41.7658 134.004 41.5003 133.806 41.1636C133.615 40.8269 133.511 40.4513 133.496 40.0369C133.496 39.8426 133.496 39.6516 133.496 39.4638C133.496 39.2695 133.496 39.0753 133.496 38.881C133.496 38.2723 133.55 37.7705 133.657 37.3755C133.771 36.9741 133.939 36.6503 134.161 36.4042C134.39 36.1517 134.676 35.9477 135.02 35.7923C135.371 35.6369 135.78 35.5009 136.246 35.3844C136.711 35.2678 137.242 35.1415 137.838 35.0055C137.899 34.9926 137.96 35.0023 138.021 35.0347C138.082 35.0606 138.117 35.0994 138.124 35.1512L138.17 35.3358C138.185 35.3941 138.178 35.4459 138.147 35.4912C138.117 35.5301 138.071 35.556 138.01 35.5689C137.445 35.6984 136.944 35.8117 136.509 35.9089C136.074 36.006 135.703 36.1161 135.398 36.2391C135.092 36.3621 134.844 36.524 134.653 36.7247C134.47 36.919 134.271 37.1651 134.195 37.5018C134.119 37.832 133.985 38.0195 134.015 38.5375L133.966 38.7936C133.989 38.5152 134.103 38.2659 134.31 38.0457C134.523 37.8191 134.794 37.6378 135.123 37.5018C135.451 37.3658 135.799 37.2978 136.165 37.2978C136.677 37.2978 137.108 37.3949 137.46 37.5892C137.819 37.7835 138.094 38.049 138.285 38.3857C138.475 38.7159 138.579 39.0915 138.594 39.5124C138.609 39.7261 138.609 39.9009 138.594 40.0369C138.579 40.4513 138.472 40.8269 138.273 41.1636C138.082 41.5003 137.8 41.7658 137.425 41.96C137.059 42.1543 136.601 42.2514 136.051 42.2514ZM136.051 41.6881C136.585 41.6881 137.021 41.5424 137.357 41.251C137.693 40.9596 137.872 40.5387 137.895 39.9883C137.903 39.93 137.907 39.8685 137.907 39.8038C137.907 39.739 137.903 39.6581 137.895 39.5609C137.872 39.0041 137.697 38.5832 137.368 38.2983C137.04 38.0069 136.639 37.8612 136.165 37.8612C135.631 37.8612 135.176 38.0069 134.802 38.2983C134.428 38.5832 134.229 39.0041 134.206 39.5609C134.199 39.6581 134.195 39.739 134.195 39.8038C134.195 39.8685 134.199 39.93 134.206 39.9883C134.229 40.5387 134.409 40.9596 134.745 41.251C135.081 41.5424 135.516 41.6881 136.051 41.6881Z" fill="white"/>
<path d="M141.003 44C140.927 44 140.866 43.9805 140.82 43.9417C140.774 43.9028 140.751 43.851 140.751 43.7863V43.6503C140.751 43.5855 140.774 43.5337 140.82 43.4949C140.866 43.456 140.927 43.4366 141.003 43.4366H141.267C141.45 43.4366 141.599 43.4042 141.714 43.3395C141.828 43.2747 141.931 43.1646 142.023 43.0092C142.122 42.8538 142.241 42.6401 142.378 42.3682L144.943 37.2494C144.968 37.2041 144.996 37.1685 145.037 37.1426C145.075 37.1167 145.13 37.1037 145.208 37.1037H145.415C145.476 37.1037 145.529 37.1232 145.575 37.162C145.619 37.2009 145.644 37.2462 145.644 37.298C145.644 37.3239 145.634 37.3498 145.619 37.3757C145.611 37.4016 145.598 37.4405 145.575 37.4923L143.398 41.8243C143.298 42.025 143.188 42.2484 143.065 42.4944C142.943 42.747 142.806 42.9866 142.653 43.2132C142.5 43.4463 142.321 43.6341 142.115 43.7766C141.908 43.9255 141.668 44 141.393 44H141.003ZM142.651 41.8243L140.408 37.4923C140.362 37.3951 140.339 37.3304 140.339 37.298C140.339 37.2462 140.362 37.2009 140.408 37.162C140.453 37.1232 140.507 37.1037 140.568 37.1037H140.786C140.862 37.1037 140.919 37.1199 140.958 37.1523C140.996 37.1782 141.026 37.2106 141.049 37.2494L142.998 41.1304L142.651 41.8243Z" fill="white"/>
<path d="M151.351 42.1545C151.274 42.1545 151.213 42.1351 151.167 42.0962C151.122 42.0574 151.099 42.0056 151.099 41.9408V39.9594C150.885 40.1407 150.625 40.2734 150.32 40.3576C150.014 40.4353 149.663 40.4741 149.266 40.4741C148.617 40.4741 148.109 40.3608 147.742 40.1342C147.383 39.9076 147.204 39.5385 147.204 39.0269V37.3174C147.204 37.2527 147.227 37.2009 147.273 37.162C147.318 37.1232 147.379 37.1037 147.456 37.1037H147.651C147.727 37.1037 147.788 37.1232 147.834 37.162C147.88 37.2009 147.903 37.2527 147.903 37.3174V38.9783C147.903 39.2956 148.017 39.532 148.246 39.6874C148.483 39.8363 148.838 39.9108 149.312 39.9108C149.854 39.9108 150.285 39.8558 150.606 39.7457C150.934 39.6356 151.099 39.4316 151.099 39.1338V37.3174C151.099 37.2527 151.122 37.2009 151.167 37.162C151.213 37.1232 151.274 37.1037 151.351 37.1037H151.545C151.622 37.1037 151.683 37.1232 151.729 37.162C151.774 37.2009 151.797 37.2527 151.797 37.3174V41.9408C151.797 42.0056 151.774 42.0574 151.729 42.0962C151.683 42.1351 151.622 42.1545 151.545 42.1545H151.351Z" fill="white"/>
<path d="M156.555 42.2517C155.815 42.2517 155.226 42.0477 154.791 41.6397C154.356 41.2253 154.108 40.6846 154.047 40.0177C154.039 39.9205 154.035 39.791 154.035 39.6292C154.035 39.4673 154.039 39.3378 154.047 39.2406C154.085 38.8003 154.207 38.4118 154.413 38.0751C154.619 37.7384 154.902 37.4761 155.261 37.2883C155.627 37.1005 156.059 37.0067 156.555 37.0067C157.09 37.0067 157.544 37.107 157.918 37.3077C158.293 37.5085 158.579 37.7966 158.778 38.1722C158.984 38.5478 159.087 38.9946 159.087 39.5126V39.6583C159.087 39.723 159.06 39.7748 159.007 39.8137C158.961 39.8526 158.9 39.872 158.823 39.872H154.745C154.745 39.872 154.745 39.8849 154.745 39.9108C154.745 39.9367 154.745 39.9562 154.745 39.9691C154.761 40.2605 154.841 40.5389 154.986 40.8044C155.131 41.0634 155.337 41.2771 155.605 41.4455C155.872 41.6074 156.189 41.6883 156.555 41.6883C156.884 41.6883 157.155 41.6462 157.369 41.562C157.59 41.4779 157.766 41.3872 157.896 41.2901C158.025 41.1865 158.109 41.1088 158.148 41.057C158.216 40.9728 158.27 40.9242 158.308 40.9113C158.346 40.8918 158.407 40.8821 158.491 40.8821H158.675C158.743 40.8821 158.801 40.9016 158.846 40.9404C158.9 40.9728 158.923 41.0181 158.915 41.0764C158.907 41.167 158.846 41.2804 158.732 41.4163C158.625 41.5459 158.468 41.6754 158.262 41.8049C158.064 41.9344 157.819 42.0412 157.529 42.1254C157.239 42.2096 156.914 42.2517 156.555 42.2517ZM154.745 39.3281H158.388V39.2892C158.388 38.9654 158.316 38.674 158.171 38.415C158.025 38.156 157.815 37.952 157.54 37.8031C157.266 37.6477 156.937 37.57 156.555 37.57C156.173 37.57 155.845 37.6477 155.57 37.8031C155.303 37.952 155.097 38.156 154.952 38.415C154.814 38.674 154.745 38.9654 154.745 39.2892V39.3281Z" fill="white"/>
<path d="M161.538 42.1545C161.462 42.1545 161.401 42.1351 161.355 42.0962C161.309 42.0574 161.286 42.0056 161.286 41.9408V37.3174C161.286 37.2527 161.309 37.2009 161.355 37.162C161.401 37.1232 161.462 37.1037 161.538 37.1037H161.733C161.809 37.1037 161.87 37.1232 161.916 37.162C161.962 37.2009 161.985 37.2527 161.985 37.3174V39.2892H165.559V37.3174C165.559 37.2527 165.582 37.2009 165.628 37.162C165.674 37.1232 165.735 37.1037 165.811 37.1037H166.006C166.082 37.1037 166.143 37.1232 166.189 37.162C166.235 37.2009 166.258 37.2527 166.258 37.3174V41.9408C166.258 42.0056 166.235 42.0574 166.189 42.0962C166.143 42.1351 166.082 42.1545 166.006 42.1545H165.811C165.735 42.1545 165.674 42.1351 165.628 42.0962C165.582 42.0574 165.559 42.0056 165.559 41.9408V39.8525H161.985V41.9408C161.985 42.0056 161.962 42.0574 161.916 42.0962C161.87 42.1351 161.809 42.1545 161.733 42.1545H161.538Z" fill="white"/>
<path d="M169.027 42.1545C168.966 42.1545 168.913 42.1351 168.867 42.0962C168.821 42.0574 168.798 42.012 168.798 41.9602V37.3174C168.798 37.2527 168.821 37.2009 168.867 37.162C168.913 37.1232 168.974 37.1037 169.05 37.1037H169.245C169.321 37.1037 169.382 37.1232 169.428 37.162C169.474 37.2009 169.497 37.2527 169.497 37.3174V41.6786V41.3859L173.025 37.2494C173.063 37.2106 173.101 37.1782 173.14 37.1523C173.185 37.1199 173.247 37.1037 173.323 37.1037H173.541C173.602 37.1037 173.655 37.1232 173.701 37.162C173.747 37.1944 173.77 37.2365 173.77 37.2883V41.9408C173.77 42.0056 173.747 42.0574 173.701 42.0962C173.655 42.1351 173.594 42.1545 173.518 42.1545H173.323C173.247 42.1545 173.185 42.1351 173.14 42.0962C173.094 42.0574 173.071 42.0056 173.071 41.9408L173.195 37.9518L173.311 37.8225L169.543 42.0088C169.512 42.0412 169.474 42.0735 169.428 42.1059C169.382 42.1383 169.321 42.1545 169.245 42.1545H169.027Z" fill="white"/>
<path d="M178.519 42.2517C177.778 42.2517 177.19 42.0477 176.755 41.6397C176.32 41.2253 176.072 40.6846 176.01 40.0177C176.003 39.9205 175.999 39.791 175.999 39.6292C175.999 39.4673 176.003 39.3378 176.01 39.2406C176.049 38.8003 176.171 38.4118 176.377 38.0751C176.583 37.7384 176.866 37.4761 177.225 37.2883C177.591 37.1005 178.023 37.0067 178.519 37.0067C179.054 37.0067 179.508 37.107 179.882 37.3077C180.257 37.5085 180.543 37.7966 180.741 38.1722C180.948 38.5478 181.051 38.9946 181.051 39.5126V39.6583C181.051 39.723 181.024 39.7748 180.971 39.8137C180.925 39.8526 180.864 39.872 180.787 39.872H176.709C176.709 39.872 176.709 39.8849 176.709 39.9108C176.709 39.9367 176.709 39.9562 176.709 39.9691C176.724 40.2605 176.805 40.5389 176.95 40.8044C177.095 41.0634 177.301 41.2771 177.568 41.4455C177.836 41.6074 178.153 41.6883 178.519 41.6883C178.848 41.6883 179.119 41.6462 179.332 41.562C179.554 41.4779 179.73 41.3872 179.859 41.2901C179.989 41.1865 180.073 41.1088 180.111 41.057C180.18 40.9728 180.234 40.9242 180.272 40.9113C180.31 40.8918 180.371 40.8821 180.455 40.8821H180.638C180.707 40.8821 180.764 40.9016 180.81 40.9404C180.864 40.9728 180.887 41.0181 180.879 41.0764C180.871 41.167 180.81 41.2804 180.696 41.4163C180.589 41.5459 180.432 41.6754 180.226 41.8049C180.027 41.9344 179.783 42.0412 179.493 42.1254C179.203 42.2096 178.878 42.2517 178.519 42.2517ZM176.709 39.3281H180.352V39.2892C180.352 38.9654 180.279 38.674 180.134 38.415C179.989 38.156 179.779 37.952 179.504 37.8031C179.229 37.6477 178.901 37.57 178.519 37.57C178.137 37.57 177.809 37.6477 177.534 37.8031C177.267 37.952 177.06 38.156 176.915 38.415C176.778 38.674 176.709 38.9654 176.709 39.2892V39.3281Z" fill="white"/>
<path d="M183.501 42.1545C183.425 42.1545 183.364 42.1351 183.318 42.0962C183.272 42.0574 183.249 42.0056 183.249 41.9408V37.2883C183.249 37.2365 183.272 37.1944 183.318 37.162C183.372 37.1232 183.425 37.1037 183.479 37.1037H183.742C183.857 37.1037 183.944 37.1523 184.005 37.2494L186.125 40.649L188.244 37.2494C188.305 37.1523 188.393 37.1037 188.507 37.1037H188.771C188.832 37.1037 188.885 37.1232 188.931 37.162C188.977 37.1944 189 37.2365 189 37.2883V41.9408C189 42.0056 188.977 42.0574 188.931 42.0962C188.885 42.1351 188.824 42.1545 188.748 42.1545H188.553C188.477 42.1545 188.416 42.1351 188.37 42.0962C188.324 42.0574 188.301 42.0056 188.301 41.9408L188.423 38.1074L188.633 37.7642L186.629 41.0569C186.591 41.1217 186.545 41.1832 186.491 41.2415C186.438 41.2997 186.354 41.3289 186.239 41.3289H186.01C185.896 41.3289 185.812 41.2997 185.758 41.2415C185.705 41.1832 185.659 41.1217 185.621 41.0569L183.673 37.9488L183.843 38.2199L183.948 41.9408C183.948 42.0056 183.925 42.0574 183.879 42.0962C183.834 42.1351 183.773 42.1545 183.696 42.1545H183.501Z" fill="white"/>
</svg>
